<svg width="31" height="31" viewBox="0 0 31 31" fill="none" xmlns="http://www.w3.org/2000/svg">
<circle cx="15.8277" cy="15.4866" r="14" fill="white"/>
<path d="M15.8274 30.4867C7.5564 30.4867 0.827393 23.7577 0.827393 15.4867C0.827393 7.21574 7.5564 0.48674 15.8274 0.48674C24.0984 0.48674 30.8274 7.21574 30.8274 15.4867C30.8274 23.7577 24.0984 30.4867 15.8274 30.4867ZM15.8274 2.48674C8.65939 2.48674 2.82739 8.31774 2.82739 15.4867C2.82739 22.6547 8.65939 28.4867 15.8274 28.4867C22.9964 28.4867 28.8274 22.6547 28.8274 15.4867C28.8274 8.31774 22.9964 2.48674 15.8274 2.48674Z" fill="#A2A2A2"/>
<path d="M16.8274 17.4867H11.8274C11.2754 17.4867 10.8274 17.0387 10.8274 16.4867C10.8274 15.9347 11.2754 15.4867 11.8274 15.4867H15.8274V9.48674C15.8274 8.93475 16.2754 8.48674 16.8274 8.48674C17.3804 8.48674 17.8274 8.93475 17.8274 9.48674V16.4867C17.8274 17.0387 17.3804 17.4867 16.8274 17.4867Z" fill="#A2A2A2"/>
</svg>
