<svg width="35" height="29" viewBox="0 0 35 29" fill="none" xmlns="http://www.w3.org/2000/svg">
<path d="M33.3873 0.548744H1.13031C0.648315 0.548744 0.258301 0.939743 0.258301 1.42075V27.5747C0.258301 28.0557 0.648315 28.4467 1.13031 28.4467H33.3873C33.8683 28.4467 34.2583 28.0557 34.2583 27.5747V1.42075C34.2583 0.939743 33.8683 0.548744 33.3873 0.548744ZM32.5153 2.29274V8.39474H2.00232V2.29274H32.5153ZM2.00232 26.7027V14.4977H32.5153V26.7027H2.00232Z" fill="#A2A2A2"/>
<path d="M8.10535 21.4717H6.36133C5.87933 21.4717 5.48932 21.8627 5.48932 22.3437C5.48932 22.8257 5.87933 23.2157 6.36133 23.2157H8.10535C8.5863 23.2157 8.97632 22.8257 8.97632 22.3437C8.97632 21.8627 8.5863 21.4717 8.10535 21.4717Z" fill="#A2A2A2"/>
<path d="M17.6943 21.4717H12.4644C11.9823 21.4717 11.5923 21.8627 11.5923 22.3437C11.5923 22.8257 11.9823 23.2157 12.4644 23.2157H17.6943C18.1763 23.2157 18.5663 22.8257 18.5663 22.3437C18.5663 21.8627 18.1763 21.4717 17.6943 21.4717Z" fill="#A2A2A2"/>
</svg>
