<svg width="33" height="29" viewBox="0 0 33 29" fill="none" xmlns="http://www.w3.org/2000/svg">
<path d="M21.5913 28.5487H6.92535C3.25031 28.5487 0.258301 25.5587 0.258301 21.8827V7.21574C0.258301 3.53974 3.25031 0.548744 6.92535 0.548744H21.5913C22.2153 0.548744 22.8353 0.636742 23.4323 0.808746C23.9633 0.961746 24.2693 1.51675 24.1163 2.04675C23.9623 2.57774 23.4093 2.88074 22.8784 2.73074C22.4613 2.60974 22.0283 2.54874 21.5913 2.54874H6.92535C4.35236 2.54874 2.2583 4.64275 2.2583 7.21574V21.8827C2.2583 24.4557 4.35236 26.5487 6.92535 26.5487H21.5913C24.1653 26.5487 26.2583 24.4557 26.2583 21.8827V16.7987C26.2583 16.2467 26.7063 15.7987 27.2583 15.7987C27.8113 15.7987 28.2583 16.2467 28.2583 16.7987V21.8827C28.2583 25.5587 25.2673 28.5487 21.5913 28.5487Z" fill="#0096C8"/>
<path d="M27.4344 2.31874L13.4953 15.3277C13.3404 15.4727 13.2284 15.6567 13.1694 15.8607L11.8363 20.5277C11.5844 21.4087 12.3994 22.2237 13.2794 21.9717L17.9884 20.6267C18.1664 20.5757 18.3294 20.4837 18.4644 20.3567L32.3753 7.37374C32.8584 6.92275 32.8714 6.16175 32.4044 5.69474L29.0564 2.34674C28.6114 1.90174 27.8944 1.88974 27.4344 2.31874Z" fill="#0096C8"/>
</svg>
