<svg width="32" height="27" viewBox="0 0 32 27" fill="none" xmlns="http://www.w3.org/2000/svg">
<path d="M31.8195 6.06474C31.8674 5.72774 31.6945 5.39774 31.3905 5.24574L22.5315 0.815741C22.3085 0.704741 22.0465 0.704741 21.8235 0.815741L10.7505 6.35274L1.58845 2.68774C1.32945 2.58274 1.03447 2.62474 0.813461 2.79374C0.591476 2.96274 0.475479 3.23674 0.508468 3.51474L1.15648 9.02474C1.14046 9.16274 1.15147 9.29674 1.20348 9.41974L1.76646 14.2027L1.13747 24.8907C1.11247 25.3047 1.41145 25.6667 1.82246 25.7217L5.23445 26.1767C5.36946 26.2867 5.53548 26.3617 5.72346 26.3617C5.84148 26.3617 5.95146 26.3317 6.05147 26.2857L11.3145 26.9877C11.4225 27.0017 11.5325 26.9937 11.6365 26.9637L14.5075 26.1437C14.5325 26.1477 14.5535 26.1607 14.5795 26.1627L14.6235 26.1637C14.8235 26.1637 15.0045 26.0857 15.1445 25.9617L20.2855 24.4927L29.5675 26.9677C29.6345 26.9857 29.7035 26.9947 29.7715 26.9947C29.9435 26.9947 30.1135 26.9377 30.2535 26.8307C30.4475 26.6807 30.5625 26.4497 30.5625 26.2037V14.8687L31.0965 11.1277C31.1165 11.0897 31.1455 11.0577 31.1585 11.0157C31.2005 10.8837 31.1945 10.7517 31.1685 10.6247L31.8195 6.06474ZM2.23546 4.65074L6.15245 6.21674C6.06245 6.67174 5.82747 7.35274 5.20946 7.88374C4.36247 8.61074 3.29848 8.58274 2.68648 8.48474L2.23546 4.65074ZM19.5055 23.0697L15.6275 24.1787C15.8375 23.4277 16.2425 22.5147 17.0465 21.6947C17.8955 20.8297 18.8475 20.4067 19.5925 20.1957L19.5055 23.0697ZM19.9895 7.09974L15.0235 8.35074C14.7995 8.40674 14.6115 8.55774 14.5085 8.76374L12.6105 12.5607C12.4145 12.9507 12.5735 13.4267 12.9645 13.6217C13.0775 13.6787 13.1985 13.7047 13.3175 13.7047C13.6075 13.7047 13.8865 13.5447 14.0255 13.2677L15.7615 9.79574L19.9395 8.74374L19.7795 14.0217H14.5834C14.1465 14.0217 13.7925 14.3757 13.7925 14.8127C13.7925 15.2497 14.1465 15.6037 14.5834 15.6037H19.7315L19.6425 18.5547C18.6515 18.7657 17.1935 19.2857 15.9175 20.5867C14.5265 22.0047 14.0625 23.6397 13.9065 24.6697L12.2105 25.1547V19.8747C12.2105 19.4377 11.8565 19.0837 11.4195 19.0837C10.9825 19.0837 10.6285 19.4377 10.6285 19.8747V25.2997L6.51445 24.7517V20.7667C6.77846 20.4297 7.08845 20.1357 7.44047 19.8927C7.76646 19.6667 8.12547 19.4867 8.50645 19.3597C8.92045 19.2217 9.14348 18.7737 9.00548 18.3587C8.86748 17.9447 8.42046 17.7207 8.00447 17.8597C7.48146 18.0337 6.98848 18.2807 6.53947 18.5917C5.96248 18.9917 5.46547 19.4887 5.06447 20.0707C4.97646 20.1987 4.93248 20.3527 4.93248 20.5077V24.5407L2.75947 24.2507L3.26848 15.6037H7.62245C8.05946 15.6037 8.41347 15.2497 8.41347 14.8127C8.41347 14.3757 8.05946 14.0217 7.62245 14.0217H3.33748L2.87547 10.0967C3.01747 10.1087 3.16347 10.1167 3.32045 10.1167C4.19646 10.1167 5.28447 9.90374 6.23848 9.08474C7.07747 8.36574 7.45747 7.48474 7.63448 6.80974L9.99547 7.75374V12.2817C9.99547 12.7177 10.3495 13.0727 10.7865 13.0727C11.2235 13.0727 11.5775 12.7177 11.5775 12.2817V7.70774L20.1005 3.44574L19.9895 7.09974ZM28.9805 25.1737L25.6455 24.2847L25.5145 18.5907L27.4315 18.1117C27.8555 18.0047 28.1135 17.5757 28.0075 17.1527C27.9015 16.7277 27.4695 16.4687 27.0475 16.5767L24.5165 17.2087C24.1585 17.2987 23.9095 17.6247 23.9175 17.9947L24.0535 23.8597L21.0885 23.0687L21.3145 15.6037H28.9805V25.1737ZM29.0855 14.0217H21.3625L21.5205 8.81574L29.4715 11.3147L29.0855 14.0217ZM29.6985 9.72774L21.5704 7.17274L21.7025 2.81274C21.7045 2.75874 21.6855 2.70974 21.6765 2.65874L22.1775 2.40774L30.1735 6.40574L29.6985 9.72774Z" fill="#A39FA0"/>
<circle cx="11.1029" cy="15.7618" r="1.89847" fill="#A39FA0"/>
</svg>
