<svg width="9" height="13" viewBox="0 0 9 13" fill="none" xmlns="http://www.w3.org/2000/svg">
<path d="M2.96497 8.3606H6.73372V8.48842C6.73372 9.04071 6.286 9.48842 5.73372 9.48842H3.96497C3.41268 9.48842 2.96497 9.04071 2.96497 8.48842V8.3606Z" fill="white" stroke="#007CAB" stroke-width="0.5"/>
<circle cx="4.84932" cy="4.84932" r="3.84932" stroke="#007CAB" stroke-width="0.5"/>
<path d="M3.16846 8.07104H6.53021V8.39887C6.53021 8.8407 6.17204 9.19887 5.73021 9.19887H3.96846C3.52663 9.19887 3.16846 8.8407 3.16846 8.39887V8.07104Z" fill="white"/>
<line x1="3.29102" y1="10.219" x2="6.40763" y2="10.219" stroke="#007CAB" stroke-width="0.5" stroke-linecap="round" stroke-linejoin="round"/>
<line x1="3.29102" y1="11.2" x2="6.40763" y2="11.2" stroke="#007CAB" stroke-width="0.5" stroke-linecap="round" stroke-linejoin="round"/>
<path d="M4.33716 11.5806H5.36147V12.0806C5.36147 12.3567 5.13761 12.5806 4.86147 12.5806H4.83716C4.56102 12.5806 4.33716 12.3567 4.33716 12.0806V11.5806Z" fill="#007CAB"/>
<path d="M2.79541 4.5979L3.47961 5.96741L4.16431 4.5979L4.84912 5.96741L5.53381 4.5979L5.80823 5.14673L6.21863 5.96741L6.90332 4.5979" stroke="#007CAB" stroke-width="0.5" stroke-linecap="round" stroke-linejoin="round"/>
</svg>
