<svg width="27" height="23" viewBox="0 0 27 23" fill="none" xmlns="http://www.w3.org/2000/svg">
<path d="M17.6135 5.02539C18.1111 6.69409 18.1821 8.63647 18.1887 10.2112H19.3352C19.3286 8.69312 19.2551 6.83862 18.8242 5.13086C18.4756 5.08984 18.1318 5.02539 17.7715 5.02539H17.6135Z" fill="#0ECFFF"/>
<path d="M7.89343 5.11914C7.52429 6.63477 7.3916 8.38647 7.3728 10.2156H8.51721C8.52405 8.61548 8.59949 6.67627 9.09497 5.02539H8.82422C8.50549 5.02539 8.203 5.08521 7.89343 5.11914Z" fill="#0ECFFF"/>
<path d="M16.5981 11.9028V11.426C16.5981 11.1511 16.7954 10.9563 17.043 10.8691V10.7844C17.043 9.12671 17.043 6.85938 16.4539 5.10376C16.4424 5.07324 16.4287 5.05518 16.4172 5.02539H10.2874C9.8103 6.40332 9.66357 8.34009 9.66357 10.7888V10.8665C9.91333 10.9536 10.1152 11.1487 10.1152 11.426V11.9028C10.1152 12.2534 9.83081 12.5378 9.47803 12.5378H8.6228V22.0532H18.0908V12.5378H17.2332C16.8826 12.5378 16.5981 12.2534 16.5981 11.9028Z" fill="#0ECFFF"/>
<path d="M5.77991 11.9023V11.4258C5.77991 11.1509 5.97705 10.9561 6.22437 10.8689V10.7888C6.22437 9.42676 6.23169 7.35205 6.66467 5.33203C2.95789 6.29541 0.206787 9.63281 0.206787 13.6426V19.8276C0.206787 21.0562 1.2041 22.0532 2.4353 22.0532H7.27222V12.5376H6.41479C6.06433 12.5376 5.77991 12.2529 5.77991 11.9023Z" fill="#0ECFFF"/>
<path d="M20.0601 5.37109C20.459 7.27856 20.4819 9.25464 20.4819 10.7837V10.866C20.7317 10.9512 20.9336 11.146 20.9336 11.4253V11.9019C20.9336 12.2529 20.647 12.5374 20.2964 12.5374H19.4387V22.0527H24.1614C25.3923 22.0527 26.3875 21.0562 26.3875 19.8271V13.6423C26.3875 9.68042 23.7007 6.3772 20.0601 5.37109Z" fill="#0ECFFF"/>
<path d="M13.3521 0.382812C8.28125 0.382812 7.42847 5.03662 7.37305 10.2153H8.51746C8.53101 6.72412 8.77417 1.52905 13.3521 1.52905C15.4795 1.52905 16.8092 2.55151 17.5405 4.74048C18.118 6.46704 18.1825 8.5481 18.189 10.2107H19.3353C19.3287 8.46851 19.2621 6.27026 18.6294 4.37598C17.7422 1.72583 15.9679 0.382812 13.3521 0.382812Z" fill="#0ECFFF"/>
</svg>
