<svg width="41" height="53" viewBox="0 0 41 53" fill="none" xmlns="http://www.w3.org/2000/svg">
<path d="M6.04261 45.7165V46.2525H8.13061V45.7165H6.04261ZM8.98661 49.9485V50.4925H10.5146V49.9485H8.98661ZM8.78661 45.0285V51.1645H9.28261V45.5725H10.2746V51.1005H10.7946V45.0285H8.78661ZM7.94661 45.7165V45.8445C7.85061 49.2445 7.75461 50.4045 7.57061 50.6605C7.49861 50.7645 7.44261 50.7805 7.33861 50.7805C7.21861 50.7805 6.98661 50.7805 6.72261 50.7565C6.80261 50.9085 6.85861 51.1405 6.85861 51.3005C7.13061 51.3245 7.39461 51.3165 7.57061 51.3005C7.77061 51.2685 7.90661 51.2045 8.03461 51.0045C8.28261 50.6685 8.36261 49.5405 8.46661 45.9965C8.46661 45.9165 8.46661 45.7165 8.46661 45.7165H7.94661ZM6.73861 44.1245C6.73061 47.2445 6.74661 49.7485 5.40261 51.1005C5.53861 51.1805 5.73061 51.3565 5.81861 51.4845C7.24261 50.0125 7.24261 47.3885 7.25861 44.1245H6.73861ZM4.26661 44.6845V45.1805H5.27461V48.9405H4.26661V49.4445H5.75461V44.6845H4.26661ZM3.97061 44.6845V50.2285H4.45861V44.6845H3.97061ZM17.8506 44.1485V51.4525H18.4346V44.1485H17.8506ZM15.2106 45.4605V46.0125H16.8906V45.4605H15.2106ZM18.1626 45.4605V46.0125H19.9306V45.4605H18.1626ZM18.1866 47.1245V47.6685H19.8346V47.1245H18.1866ZM18.1626 48.8125V49.3645H20.0106V48.8125H18.1626ZM15.2746 47.1245V47.6685H16.8186V47.1245H15.2746ZM14.8906 49.1965L15.1306 49.7405C15.8186 49.4925 16.6826 49.1645 17.5226 48.8365L17.4426 48.3805C16.5066 48.6925 15.5306 49.0205 14.8906 49.1965ZM16.5626 44.1645V47.7325C16.5626 49.0045 16.3866 50.2845 15.0106 51.1005C15.1546 51.1885 15.3626 51.3805 15.4586 51.4925C16.9146 50.6045 17.1306 49.2205 17.1306 47.7325V44.1645H16.5626ZM13.2186 44.8445V45.3965H14.4506V48.5485H13.2186V49.1005H15.0026V44.8445H13.2186ZM12.9146 44.8445V49.8205H13.4506V44.8445H12.9146ZM26.4426 47.3485C25.7066 49.3725 24.0266 50.4125 21.6026 50.9165C21.7306 51.0605 21.9226 51.3325 21.9866 51.4845C24.4426 50.8685 26.2026 49.7565 27.0826 47.5245L26.4426 47.3485ZM23.8346 45.9725C23.3466 46.6525 22.4986 47.3165 21.7146 47.7325C21.8666 47.8445 22.0986 48.0845 22.2026 48.2125C22.9786 47.7245 23.8746 46.9725 24.4426 46.2045L23.8346 45.9725ZM24.1546 47.3885L23.5866 47.5645C24.4426 49.6925 26.0506 50.9725 28.6026 51.4605C28.6906 51.2925 28.8666 51.0205 29.0026 50.8845C26.5226 50.4765 24.8986 49.2845 24.1546 47.3885ZM21.7786 45.1405V45.7245H28.8026V45.1405H21.7786ZM24.9626 44.0845V45.5165H25.5786V44.0845H24.9626ZM26.2266 46.3085C26.9946 46.8285 27.9226 47.6045 28.3546 48.1325L28.8746 47.7165C28.4186 47.1885 27.4746 46.4445 26.7226 45.9405L26.2266 46.3085ZM33.2746 47.3565L32.7546 47.5165C33.5626 49.6285 35.0986 50.9405 37.5306 51.4525C37.6106 51.2845 37.7786 51.0365 37.9146 50.9085C35.5306 50.4765 33.9786 49.2525 33.2746 47.3565ZM36.2266 47.0765V47.1885C35.6426 49.2845 33.9546 50.4685 32.0426 50.9485C32.1706 51.0685 32.3146 51.3005 32.3866 51.4605C34.4426 50.8685 36.1866 49.6445 36.8586 47.2285L36.4506 47.0445L36.3386 47.0765H36.2266ZM30.8026 45.4285V46.0125H37.7146V45.4285H30.8026ZM32.9466 47.0765L32.7786 47.6605H36.2906V47.0765H32.9466ZM32.9466 44.0925C32.9066 44.8205 32.8346 48.9485 30.5306 50.7805C30.7226 50.8925 30.9306 51.0445 31.0506 51.1965C33.3706 49.2045 33.5066 45.0125 33.5626 44.0925H32.9466Z" fill="white"/>
<ellipse cx="20.7561" cy="20.2039" rx="19.3855" ry="19.3856" stroke="white" stroke-width="1.5"/>
<path d="M20.5718 15.6211H11.2863C10.6767 15.6211 10.1825 16.1152 10.1825 16.7249V18.3708C8.18842 18.4891 6.61035 20.1404 6.61035 22.1644C6.61035 24.1884 8.18842 25.8396 10.1825 25.9579V26.1118C10.1825 27.0565 10.9484 27.8224 11.8932 27.8224H19.965C20.9097 27.8224 21.6757 27.0565 21.6757 26.1118V16.7249C21.6757 16.1152 21.1814 15.6211 20.5718 15.6211ZM7.61444 22.1644C7.61444 20.6949 8.74377 19.4927 10.1825 19.3745V24.9541C8.74377 24.8362 7.61444 23.6337 7.61444 22.1644Z" stroke="white" stroke-linecap="round" stroke-linejoin="round"/>
<path d="M23.7603 19.505V26.5409C23.7603 27.2494 24.3343 27.8232 25.0425 27.8232H31.0927C31.8009 27.8232 32.375 27.2494 32.375 26.5409V26.4258C33.8696 26.3373 35.0525 25.0994 35.0525 23.5823C35.0525 22.0653 33.8696 20.8275 32.375 20.7389V19.505C32.375 19.0483 32.0045 18.6777 31.5476 18.6777H24.5876C24.1307 18.6777 23.7603 19.0483 23.7603 19.505ZM32.375 25.6733V21.4913C33.4534 21.5798 34.2999 22.4808 34.2999 23.5823C34.2999 24.6837 33.4534 25.5851 32.375 25.6733Z" stroke="white" stroke-linecap="round" stroke-linejoin="round"/>
<path d="M27.9227 15.209C27.9426 15.1387 27.8616 15.0837 27.8026 15.1262C27.4813 15.3582 26.9191 15.8723 27.3434 16.3955C27.7552 16.9038 27.7927 17.2407 27.7183 17.5063C27.6971 17.5815 27.7866 17.6382 27.8443 17.5857C28.0599 17.3882 28.3264 17.0886 28.2533 16.8652C28.1446 16.533 27.7085 15.9595 27.9227 15.209Z" stroke="white" stroke-linecap="round" stroke-linejoin="round"/>
<path d="M15.1185 12.4178C15.1385 12.3479 15.0575 12.2926 14.9984 12.3353C14.6772 12.5673 14.1149 13.0813 14.5392 13.6045C14.9511 14.1128 14.9885 14.4497 14.9142 14.7153C14.893 14.7905 14.9823 14.8474 15.0401 14.7945C15.2557 14.5973 15.5222 14.2977 15.4492 14.0743C15.3404 13.7419 14.9043 13.1684 15.1185 12.4178Z" stroke="white" stroke-linecap="round" stroke-linejoin="round"/>
<path d="M29.6936 12.7041C29.719 12.615 29.616 12.5448 29.5409 12.5991C29.1324 12.8941 28.4176 13.5476 28.9571 14.213C29.4807 14.8591 29.5284 15.2876 29.4337 15.6251C29.4069 15.7208 29.5206 15.7932 29.5939 15.726C29.8681 15.4754 30.207 15.0943 30.114 14.8102C29.9758 14.3876 29.4213 13.6582 29.6936 12.7041Z" stroke="white" stroke-linecap="round" stroke-linejoin="round"/>
<path d="M16.6354 9.72295C16.6674 9.61077 16.5374 9.52202 16.4428 9.59026C15.9276 9.96233 15.0261 10.7864 15.7064 11.6259C16.3669 12.4407 16.427 12.9812 16.3076 13.407C16.2738 13.5278 16.4171 13.6188 16.5096 13.5341C16.8554 13.2177 17.2828 12.7375 17.1656 12.3791C16.9913 11.846 16.2919 10.9263 16.6354 9.72295Z" stroke="white" stroke-linecap="round" stroke-linejoin="round"/>
</svg>
