<svg width="36" height="36" viewBox="0 0 36 36" fill="none" xmlns="http://www.w3.org/2000/svg">
<circle cx="17.9642" cy="17.9594" r="16.7953" fill="#5BD0FA" stroke="#5BD0FA" stroke-width="1.5"/>
<path d="M7.01999 12.9954L8.76548 14.9161L15.6908 11.9328V11.9328L18.1212 10.8859L18.6408 10.6621C19.1706 10.4336 19.8338 10.1928 20.7091 10.244C21.3596 10.2819 22.2787 10.5346 22.8596 11.3648C23.0243 11.5995 23.0354 11.9098 22.8839 12.1533C22.5721 12.6547 21.6799 13.4819 19.1324 14.2595L8.13498 17.6161C7.95066 17.6723 7.75034 17.6099 7.63083 17.4586L4.80454 13.8875C4.58591 13.6113 4.73862 13.2022 5.0842 13.1364L6.58542 12.85C6.7457 12.8198 6.9105 12.8745 7.01999 12.9954Z" fill="white"/>
<path d="M15.6908 11.9328L8.76548 14.9161L7.01999 12.9954C6.9105 12.8745 6.7457 12.8198 6.58542 12.85L5.0842 13.1364C4.73862 13.2022 4.58591 13.6113 4.80454 13.8875L7.63083 17.4586C7.75034 17.6099 7.95066 17.6723 8.13498 17.6161L19.1324 14.2595C21.6799 13.4819 22.5721 12.6547 22.8839 12.1533C23.0354 11.9098 23.0243 11.5995 22.8596 11.3648C22.2787 10.5346 21.3596 10.2819 20.7091 10.244C19.8338 10.1928 19.1706 10.4336 18.6408 10.6621L18.1212 10.8859L15.6908 11.9328ZM15.6908 11.9328V11.9328Z" stroke="#5BD0FA" stroke-width="0.75" stroke-linecap="round" stroke-linejoin="round"/>
<path d="M17.035 14.8997L15.7025 18.3684C15.651 18.5031 15.5399 18.6066 15.402 18.6486L14.0377 19.0651C13.7274 19.1599 13.4166 18.9174 13.433 18.5931L13.5653 15.9586L17.035 14.8997Z" fill="white" stroke="#5BD0FA" stroke-width="0.75" stroke-linecap="round" stroke-linejoin="round"/>
<path d="M15.1774 12.1539L11.3179 11.0098C11.2144 10.979 11.1033 10.9852 11.0036 11.027L10.3449 11.3029C10.0568 11.4238 9.96537 11.7876 10.162 12.0301L11.5338 13.7236L15.1774 12.1539Z" fill="white" stroke="#5BD0FA" stroke-width="0.75" stroke-linecap="round" stroke-linejoin="round"/>
<path d="M20.5586 12.1644L20.1975 11.7164L21.7356 10.4763C21.9204 10.5529 22.1038 10.6515 22.2786 10.7771L20.5586 12.1644Z" fill="white" stroke="#5BD0FA" stroke-width="0.75" stroke-linecap="round" stroke-linejoin="round"/>
<line x1="26.1614" y1="12.4871" x2="12.8543" y2="25.7942" stroke="white" stroke-width="0.75" stroke-linecap="round"/>
<path d="M29.9587 21.6986C29.3026 19.4371 27.272 17.8501 24.9191 17.7596C24.8427 17.7596 24.7768 17.7592 24.7115 17.7592C24.7099 17.7592 24.7083 17.759 24.7067 17.759C24.7055 17.759 24.7042 17.7592 24.703 17.7592C24.6382 17.759 24.5736 17.759 24.4994 17.7596C22.5478 17.8347 20.818 18.9396 19.9103 20.6045C19.8987 20.6255 19.8875 20.647 19.8762 20.6682C19.8707 20.6787 19.865 20.6893 19.8595 20.6997C19.5358 21.3203 19.328 22.0107 19.2642 22.7424C19.2633 22.7528 19.2623 22.7634 19.2614 22.7739C19.2595 22.7969 19.2579 22.8198 19.2563 22.8429C19.2548 22.8646 19.2534 22.8862 19.2522 22.9081C19.2512 22.9255 19.2501 22.9431 19.2493 22.9608C19.2476 22.9972 19.2462 23.0334 19.2452 23.0695C19.245 23.0743 19.2448 23.079 19.2447 23.0839C19.2436 23.1263 19.2431 23.1686 19.2431 23.2108C19.243 23.2148 19.2429 23.2189 19.2429 23.2228C19.2429 23.2317 19.2432 23.2405 19.2432 23.2493C19.2434 23.278 19.2437 23.3066 19.2443 23.3353C19.2447 23.3528 19.2451 23.3701 19.2456 23.3876C19.2462 23.4089 19.2471 23.4298 19.248 23.4512C19.3017 24.7588 19.8148 25.9475 20.6304 26.861C20.6321 26.8627 20.6338 26.8647 20.6356 26.8667C20.6564 26.89 20.6775 26.913 20.6988 26.936C20.7039 26.9414 20.709 26.947 20.7142 26.9525C20.7349 26.9744 20.7557 26.9966 20.7768 27.0186C20.7807 27.0225 20.7846 27.0266 20.7885 27.0304C21.7813 28.0519 23.1698 28.6869 24.7067 28.6869C25.8234 28.6869 26.8616 28.3517 27.7267 27.7765C27.7549 27.7595 27.7828 27.7417 27.81 27.7231C29.7491 26.3875 30.6149 23.9598 29.9587 21.6986ZM26.9776 26.7031C26.9277 26.722 26.8745 26.7322 26.8206 26.7322H25.6411C25.517 26.7322 25.4289 26.6102 25.4677 26.4927C25.9431 25.0474 27.1333 23.9518 28.6127 23.5975C28.6283 23.5939 28.6438 23.592 28.6589 23.5928V23.5928C28.7646 23.5945 28.8516 23.6892 28.836 23.8002C28.7419 24.4709 28.4871 25.1003 28.1023 25.6401C27.7972 26.0603 27.4156 26.4213 26.9776 26.7031ZM21.5883 25.9824C21.051 25.375 20.6972 24.618 20.5826 23.8002C20.567 23.6892 20.654 23.5945 20.7596 23.5928C20.7747 23.592 20.7902 23.5939 20.8058 23.5975C22.2852 23.9518 23.4755 25.0474 23.9509 26.4927C23.9896 26.6102 23.9015 26.7322 23.7775 26.7322H22.598C22.5393 26.7322 22.4817 26.7201 22.428 26.6979C22.1171 26.4971 21.8348 26.2561 21.5883 25.9824ZM20.6897 22.1228C21.1835 20.3169 22.821 19.0618 24.693 19.0546H24.6932H24.6934C24.7043 19.0557 24.715 19.0551 24.7252 19.0546H24.7254H24.7255C26.5976 19.0618 28.2351 20.3169 28.7288 22.1228C28.7131 22.127 28.7131 22.127 28.7288 22.1228C28.7605 22.2385 28.673 22.353 28.5528 22.353H24.7093H20.8657C20.7455 22.353 20.658 22.2385 20.6897 22.1228C20.7054 22.127 20.7055 22.127 20.6897 22.1228Z" fill="white"/>
<path d="M28.6589 23.5928C28.6438 23.592 28.6283 23.5939 28.6127 23.5975C27.1333 23.9518 25.9431 25.0474 25.4677 26.4927C25.4289 26.6102 25.517 26.7322 25.6411 26.7322H26.8206C26.8745 26.7322 26.9277 26.722 26.9776 26.7031C27.4156 26.4213 27.7972 26.0603 28.1023 25.6401C28.4871 25.1003 28.7419 24.4709 28.836 23.8002C28.8516 23.6892 28.7646 23.5945 28.6589 23.5928ZM28.6589 23.5928V23.5928ZM20.6897 22.1228C21.1835 20.3169 22.821 19.0618 24.693 19.0546H24.6932H24.6934C24.7043 19.0557 24.715 19.0551 24.7252 19.0546H24.7254H24.7255C26.5976 19.0618 28.2351 20.3169 28.7288 22.1228M20.6897 22.1228C20.658 22.2385 20.7455 22.353 20.8657 22.353H24.7093H28.5528C28.673 22.353 28.7605 22.2385 28.7288 22.1228M20.6897 22.1228C20.7055 22.127 20.7054 22.127 20.6897 22.1228ZM28.7288 22.1228C28.7131 22.127 28.7131 22.127 28.7288 22.1228ZM29.9587 21.6986C29.3026 19.4371 27.272 17.8501 24.9191 17.7596C24.8427 17.7596 24.7768 17.7592 24.7115 17.7592C24.7099 17.7592 24.7083 17.759 24.7067 17.759C24.7055 17.759 24.7042 17.7592 24.703 17.7592C24.6382 17.759 24.5736 17.759 24.4994 17.7596C22.5478 17.8347 20.818 18.9396 19.9103 20.6045C19.8987 20.6255 19.8875 20.647 19.8762 20.6682C19.8707 20.6787 19.865 20.6893 19.8595 20.6997C19.5358 21.3203 19.328 22.0107 19.2642 22.7424C19.2633 22.7528 19.2623 22.7634 19.2614 22.7739C19.2595 22.7969 19.2579 22.8198 19.2563 22.8429C19.2548 22.8646 19.2534 22.8862 19.2522 22.9081C19.2512 22.9255 19.2501 22.9431 19.2493 22.9608C19.2476 22.9972 19.2462 23.0334 19.2452 23.0695C19.245 23.0743 19.2448 23.079 19.2447 23.0839C19.2436 23.1263 19.2431 23.1686 19.2431 23.2108C19.243 23.2148 19.2429 23.2189 19.2429 23.2228C19.2429 23.2317 19.2432 23.2405 19.2432 23.2493C19.2434 23.278 19.2437 23.3066 19.2443 23.3353C19.2447 23.3528 19.2451 23.3701 19.2456 23.3876C19.2462 23.4089 19.2471 23.4298 19.248 23.4512C19.3017 24.7588 19.8148 25.9475 20.6304 26.861C20.6321 26.8627 20.6338 26.8647 20.6356 26.8667C20.6564 26.89 20.6775 26.913 20.6988 26.936C20.7039 26.9414 20.709 26.947 20.7142 26.9525C20.7349 26.9744 20.7557 26.9966 20.7768 27.0186C20.7807 27.0225 20.7846 27.0266 20.7885 27.0304C21.7813 28.0519 23.1698 28.6869 24.7067 28.6869C25.8234 28.6869 26.8616 28.3517 27.7267 27.7765C27.7549 27.7595 27.7828 27.7417 27.81 27.7231C29.7491 26.3875 30.6149 23.9598 29.9587 21.6986ZM21.5883 25.9824C21.051 25.375 20.6972 24.618 20.5826 23.8002C20.567 23.6892 20.654 23.5945 20.7596 23.5928C20.7747 23.592 20.7902 23.5939 20.8058 23.5975C22.2852 23.9518 23.4755 25.0474 23.9509 26.4927C23.9896 26.6102 23.9015 26.7322 23.7775 26.7322H22.598C22.5393 26.7322 22.4817 26.7201 22.428 26.6979C22.1171 26.4971 21.8348 26.2561 21.5883 25.9824Z" stroke="#5BD0FA" stroke-width="0.5" stroke-linecap="round" stroke-linejoin="round"/>
</svg>
