<svg width="41" height="53" viewBox="0 0 41 53" fill="none" xmlns="http://www.w3.org/2000/svg">
<path d="M4.952 44.8835V51.5555H5.544V44.8835H4.952ZM3.4 46.5635V47.1315H6.952V46.5635H3.4ZM4.976 46.7875C4.632 47.8035 3.88 49.0915 3.224 49.7475C3.328 49.8995 3.48 50.1475 3.544 50.3155C4.232 49.5635 4.984 48.1235 5.368 46.9715L4.976 46.7875ZM6.408 44.2755C5.72 44.5955 4.464 44.8675 3.384 45.0355C3.456 45.1635 3.536 45.3635 3.568 45.4995C4.688 45.3475 5.992 45.0755 6.856 44.7235L6.408 44.2755ZM5.512 47.5955L5.184 47.8835C5.504 48.1795 6.288 49.0035 6.552 49.3555L6.92 48.8995C6.712 48.6835 5.776 47.8035 5.512 47.5955ZM8.112 44.3875C7.84 46.3635 7.28 49.0515 6.784 50.7315L7.368 50.8595C7.864 49.1875 8.448 46.5475 8.784 44.5075L8.112 44.3875ZM6.096 50.6115L6.24 51.2355C7.28 51.1155 8.752 50.9315 10.152 50.7475L10.136 50.1875C8.632 50.3635 7.072 50.5235 6.096 50.6115ZM8.864 48.3155C9.408 49.3635 9.928 50.7395 10.088 51.5795L10.712 51.3795C10.536 50.5235 9.992 49.1715 9.424 48.1395L8.864 48.3155ZM13.184 45.7395V47.5235C13.184 48.6035 13.08 50.0595 12.192 51.0995C12.336 51.1635 12.592 51.3315 12.696 51.4355C13.624 50.3475 13.768 48.7075 13.768 47.5315V45.7395H13.184ZM13.48 45.7395V46.2035H18.264V47.0035H13.48V47.4675H18.856V45.7395H13.48ZM12.608 44.6515V45.1955H19.328V44.6515H12.608ZM13.448 48.1635V48.6595H19.528V48.1635H13.448ZM15.584 49.2995V49.7795H18.304V49.2995H15.584ZM15.944 47.4035V48.4115H16.536V47.4035H15.944ZM18.152 49.2995V49.3795C18.056 50.4915 17.96 50.9315 17.824 51.0595C17.752 51.1235 17.672 51.1395 17.528 51.1395C17.376 51.1395 16.952 51.1315 16.528 51.0915C16.616 51.2355 16.672 51.4435 16.688 51.5955C17.128 51.6275 17.56 51.6275 17.776 51.6115C18 51.6035 18.168 51.5555 18.304 51.4195C18.512 51.2195 18.624 50.7235 18.728 49.5395C18.744 49.4595 18.752 49.2995 18.752 49.2995H18.152ZM15.464 48.4115C15.328 49.7235 14.984 50.6755 13.288 51.1395C13.408 51.2515 13.568 51.4675 13.624 51.6035C15.472 51.0435 15.904 49.9555 16.056 48.4115H15.464ZM26 44.2195V49.7955H26.568V44.2195H26ZM23.48 47.5235L23.712 48.0515L28.016 46.2195L27.792 45.7075L23.48 47.5235ZM24.344 44.9715V50.3155C24.344 51.1875 24.616 51.4035 25.536 51.4035C25.736 51.4035 27.288 51.4035 27.504 51.4035C28.344 51.4035 28.536 51.0515 28.632 49.9475C28.464 49.9155 28.232 49.8195 28.088 49.7235C28.032 50.6435 27.952 50.8595 27.48 50.8595C27.16 50.8595 25.816 50.8595 25.552 50.8595C25.016 50.8595 24.92 50.7635 24.92 50.3235V44.9715H24.344ZM27.688 45.7875C27.688 47.3795 27.68 48.5155 27.632 48.7235C27.592 48.9075 27.512 48.9395 27.392 48.9395C27.304 48.9395 27.04 48.9395 26.856 48.9315C26.928 49.0675 26.976 49.2915 27 49.4515C27.216 49.4515 27.536 49.4515 27.752 49.3955C27.984 49.3395 28.136 49.1875 28.184 48.8675C28.24 48.5555 28.264 47.3555 28.264 45.8515L28.288 45.7395L27.864 45.5795L27.76 45.6675L27.616 45.7875H27.688ZM21.248 46.1475V46.7155H23.792V46.1475H21.248ZM22.28 44.3155V49.5075H22.848V44.3155H22.28ZM21.176 49.7155L21.416 50.3075C22.128 50.0035 23.032 49.5955 23.888 49.1875L23.76 48.6515C22.808 49.0595 21.824 49.4755 21.176 49.7155ZM32.776 45.7955H34.944V46.3235H32.776V45.7955ZM32.28 45.4355V46.6835H35.464V45.4355H32.28ZM32.496 48.1475H35.224V49.9315H32.496V48.1475ZM32.016 47.7715V50.3155H35.728V47.7715H32.016ZM33.384 48.8035H34.32V49.2755H33.384V48.8035ZM33.008 48.4915V49.5955H34.712V48.4915H33.008ZM31.472 47.0515V47.4275H36.296V47.0515H31.472ZM33.584 46.4435V47.2195H34.112V46.4435H33.584ZM30.536 44.5475V51.5715H31.104V45.0595H36.648V51.5715H37.24V44.5475H30.536ZM30.888 50.7475V51.2595H36.96V50.7475H30.888Z" fill="white"/>
<circle cx="20.6558" cy="20.2828" r="19.3863" stroke="white" stroke-width="1.5"/>
<path d="M31.9389 14.3715L25.196 11L16.3378 15.2306L9 12.322L9.99161 20.5852L9.46252 28.981L16.7345 29.9062L23.4774 27.9893L30.8584 29.9062V21.3127L31.9389 14.3715Z" stroke="white" stroke-linecap="round" stroke-linejoin="round"/>
<path d="M13.4044 14.0664C13.4044 14.0664 13.4849 17.3696 9.55664 16.9607" stroke="white" stroke-linecap="round" stroke-linejoin="round"/>
<line x1="16.8379" y1="16.0312" x2="16.8379" y2="18.6958" stroke="white" stroke-linecap="round" stroke-linejoin="round"/>
<line x1="13.5239" y1="21.6797" x2="10.4754" y2="21.6797" stroke="white" stroke-linecap="round" stroke-linejoin="round"/>
<line x1="19.8125" y1="20.6797" x2="29.9846" y2="20.6797" stroke="white" stroke-linecap="round" stroke-linejoin="round"/>
<line x1="24.9213" y1="11.8823" x2="24.0703" y2="27.2524" stroke="white" stroke-linecap="round" stroke-linejoin="round"/>
<path d="M29.1623 23.0801L26.9146 23.4938V28.948" stroke="white" stroke-linecap="round" stroke-linejoin="round"/>
<line x1="30.679" y1="18.5671" x2="24.7278" y2="16.1818" stroke="white" stroke-linecap="round" stroke-linejoin="round"/>
<path d="M23.9964 15.5312L19.7091 16.9099L18.3867 19.5393" stroke="white" stroke-linecap="round" stroke-linejoin="round"/>
<path d="M23.5432 24.4199C23.5432 24.4199 19.6696 25.7705 19.5903 29.0947" stroke="white" stroke-linecap="round" stroke-linejoin="round"/>
<line x1="17.1685" y1="25.5156" x2="17.1685" y2="28.9774" stroke="white" stroke-linecap="round" stroke-linejoin="round"/>
<path d="M14.7153 23.5684C14.7153 23.5684 12.8651 24.6846 12.3716 25.4778V29.3518" stroke="white" stroke-linecap="round" stroke-linejoin="round"/>
<path d="M15.0698 21.9731C15.0698 21.2727 15.6378 20.7051 16.3378 20.7051C17.0383 20.7051 17.6063 21.2727 17.6063 21.9731C17.6063 22.6737 17.0383 23.2412 16.3378 23.2412C15.6378 23.2412 15.0698 22.6737 15.0698 21.9731Z" stroke="white" stroke-linecap="round" stroke-linejoin="round"/>
</svg>
