<svg width="75" height="101" viewBox="0 0 75 101" fill="none" xmlns="http://www.w3.org/2000/svg">
<path d="M15.5643 86.1265V88.0445H16.6283V86.1265H15.5643ZM12.2463 87.6245V88.5345H20.0303V87.6245H12.2463ZM11.6863 90.9005V91.8245H20.4223V90.9005H11.6863ZM13.5623 88.6605C13.8563 89.4305 14.1083 90.4385 14.1503 91.0545L15.1023 90.8165C15.0463 90.2145 14.7803 89.2345 14.4723 88.4785L13.5623 88.6605ZM17.7203 88.4505C17.5523 89.1505 17.2163 90.2005 16.9363 90.8585L17.8323 91.0125C18.1263 90.3825 18.4623 89.4305 18.7563 88.6045L17.7203 88.4505ZM11.7563 93.2105V94.1205H20.3663V93.2105H11.7563ZM14.9623 91.5725C14.3463 93.0985 13.3803 95.1705 12.6803 96.4165L13.5903 96.7245C14.3043 95.4365 15.2983 93.3925 16.0123 91.7825L14.9623 91.5725ZM13.3943 96.2345C15.5363 96.8785 18.1543 98.0685 19.4423 99.0205L20.1143 98.2225C18.7563 97.2425 16.1243 96.1225 14.0103 95.5205L13.3943 96.2345ZM17.7203 93.7985C17.1183 96.5285 15.4383 97.7185 11.4063 98.1245C11.5743 98.3485 11.7563 98.7125 11.8263 99.0065C16.1523 98.4325 18.0703 97.0745 18.7423 93.9525L17.7203 93.7985ZM7.38825 93.5745L7.62625 94.6105C8.87225 94.2325 10.4823 93.7285 12.0083 93.2525L11.8823 92.3145C10.2303 92.7905 8.52225 93.2945 7.38825 93.5745ZM7.62625 88.9545V89.9345H11.8963V88.9545H7.62625ZM9.53025 86.1405V97.7325C9.53025 97.9425 9.44625 97.9985 9.26425 97.9985C9.09625 98.0125 8.50825 98.0125 7.87825 97.9845C8.01825 98.2785 8.15825 98.7405 8.20025 99.0065C9.11025 99.0065 9.68425 98.9785 10.0483 98.7965C10.4123 98.6285 10.5383 98.3345 10.5383 97.7325V86.1405H9.53025ZM27.5623 93.2945V94.1485H36.0603V93.2945H27.5623ZM28.6683 95.5065C29.3963 95.9545 30.3203 96.6265 30.7683 97.0745L31.3563 96.3465C30.8943 95.9125 29.9563 95.2825 29.2283 94.8625L28.6683 95.5065ZM33.2043 92.4685C33.7223 92.7625 34.3523 93.2245 34.6603 93.5325L35.2063 92.9865C34.8843 92.6645 34.2403 92.2445 33.7223 91.9645L33.2043 92.4685ZM28.5983 93.6865C28.4863 95.5205 28.1503 97.3125 26.7643 98.2925C26.9883 98.4465 27.2683 98.7685 27.4083 98.9785C28.9763 97.8305 29.3963 95.8565 29.5503 93.6865H28.5983ZM31.1183 86.1405C31.1463 93.2945 32.0283 99.0205 34.8423 99.0345C35.7803 99.0345 36.0883 98.5725 36.2703 96.9905C36.0463 96.9065 35.7243 96.7245 35.5283 96.5285C35.4583 97.8025 35.3183 98.1245 34.9123 98.1245C33.0083 98.1245 31.9863 93.1125 32.0563 86.1405H31.1183ZM34.2543 94.3725C33.4703 96.1085 31.8743 97.5225 29.7743 98.3345C29.9703 98.5025 30.2363 98.8245 30.3623 99.0065C32.5183 98.1105 34.2403 96.6405 35.1503 94.7085L34.2543 94.3725ZM32.1263 88.5765C32.7283 89.0385 33.4283 89.7105 33.7503 90.1725L34.1983 89.5145C33.8763 89.0665 33.1763 88.4225 32.5603 88.0025L32.1263 88.5765ZM34.7443 90.2705C35.1083 90.9285 35.4583 91.8105 35.5843 92.3565L36.2703 92.0345C36.1583 91.5025 35.7803 90.6625 35.3883 90.0185L34.7443 90.2705ZM32.3083 91.2505L32.4623 92.0625C33.3863 91.9785 34.4503 91.8805 35.5703 91.7685V91.0405C34.3383 91.1245 33.1763 91.1945 32.3083 91.2505ZM33.7503 86.2665C33.5123 86.9525 33.0503 87.9605 32.7003 88.5765L33.3023 88.8565C33.6943 88.2825 34.1703 87.3725 34.5623 86.5885L33.7503 86.2665ZM34.8983 87.6665C34.3663 88.8005 33.4143 90.3965 32.6723 91.3625L33.2603 91.6985C34.0163 90.7465 34.9683 89.2485 35.6823 88.0445L34.8983 87.6665ZM27.3803 88.5765C27.9823 89.0385 28.6823 89.7105 29.0043 90.1725L29.4523 89.5145C29.1443 89.0665 28.4303 88.4225 27.8283 88.0025L27.3803 88.5765ZM29.8163 90.3545C30.1523 91.0265 30.4603 91.8945 30.5583 92.4405L31.2443 92.1465C31.1603 91.6145 30.8243 90.7605 30.4603 90.1165L29.8163 90.3545ZM27.4363 91.4045L27.5903 92.2305C28.5143 92.1465 29.5923 92.0485 30.7123 91.9365V91.1805C29.4663 91.2785 28.3183 91.3625 27.4363 91.4045ZM29.0183 86.2665C28.7663 86.9525 28.3183 87.9745 27.9683 88.6045L28.5703 88.8705C28.9483 88.2965 29.4243 87.3725 29.8303 86.6025L29.0183 86.2665ZM30.1663 87.6665C29.6063 88.8425 28.6123 90.4945 27.8283 91.4885L28.4303 91.8105C29.2283 90.8445 30.2083 89.2905 30.9363 88.0445L30.1663 87.6665ZM23.4043 89.1645V90.1445H27.6463V89.1645H23.4043ZM25.1823 86.1265V98.9925H26.1343V86.1265H25.1823ZM25.1403 89.7525C24.8043 91.7405 23.9643 94.1905 23.1103 95.4505C23.2783 95.6745 23.5163 96.0665 23.6283 96.3185C24.5523 94.9185 25.3783 92.1605 25.7703 89.9485L25.1403 89.7525ZM26.0643 90.6765L25.6303 91.0825C25.9663 91.6285 26.8483 93.2805 27.1283 93.9805L27.6603 93.2105C27.4363 92.8045 26.3443 91.0545 26.0643 90.6765ZM42.8923 90.9425L43.0463 91.9365L51.7263 90.8445L51.5723 89.8505L42.8923 90.9425ZM48.3663 86.9245C49.1923 87.6245 50.1863 88.6185 50.6343 89.2485L51.4463 88.6885C50.9703 88.0445 49.9763 87.0925 49.1363 86.4205L48.3663 86.9245ZM42.7383 86.2805C41.8143 88.4925 40.2743 90.6485 38.6503 92.0065C38.8463 92.2445 39.1543 92.7765 39.2663 93.0285C41.0163 91.4605 42.6823 89.0525 43.7323 86.6025L42.7383 86.2805ZM41.1563 90.0045V98.9925H42.2203V88.9685V88.9545L41.1563 90.0045ZM46.0283 86.3365C46.3363 93.4905 47.2603 98.7825 50.4103 99.0065C51.1383 99.0345 51.7123 98.3205 52.0063 95.8845C51.8103 95.8005 51.3483 95.5345 51.1383 95.3245C50.9983 96.9625 50.7603 97.7885 50.3683 97.7605C48.2543 97.5645 47.2883 92.6225 47.0923 86.3365H46.0283ZM55.0023 87.1205V87.9745H60.4623V87.1205H55.0023ZM57.2843 92.4825V93.1265H65.4463V92.4825H57.2843ZM57.3263 93.9245V94.5825H65.4743V93.9245H57.3263ZM57.2563 95.3805V96.1505H66.2863V95.3805H57.2563ZM60.1683 87.1205V87.2605C60.0563 88.7725 59.9443 89.3605 59.7903 89.5285C59.6923 89.6125 59.5943 89.6405 59.4123 89.6405C59.2443 89.6405 58.7963 89.6265 58.3063 89.5845C58.4323 89.7945 58.5163 90.1445 58.5443 90.3825C59.0763 90.4105 59.5943 90.4245 59.8603 90.3965C60.1823 90.3825 60.3923 90.2985 60.5883 90.1025C60.8543 89.8225 60.9803 89.1365 61.1063 87.5125C61.1203 87.3865 61.1343 87.1205 61.1343 87.1205H60.1683ZM62.9263 87.6665H65.8383V89.4165H62.9263V87.6665ZM61.9463 86.8545V90.2425H66.8603V86.8545H61.9463ZM56.5703 90.9425V96.1505H57.6063V91.6705H66.0063V90.9425H56.5703ZM61.0643 91.2085V95.7025H62.0863V91.2085H61.0643ZM65.9363 95.3805V95.5205C65.7963 97.2425 65.6143 97.9285 65.4043 98.1245C65.2923 98.2365 65.1803 98.2505 64.9843 98.2505C64.7883 98.2505 64.2703 98.2365 63.7243 98.1805C63.8643 98.4185 63.9483 98.7685 63.9623 99.0205C64.5783 99.0485 65.1383 99.0625 65.4463 99.0345C65.7823 99.0065 66.0063 98.9365 66.2163 98.7265C66.5383 98.4045 66.7203 97.6345 66.9163 95.8005C66.9303 95.6465 66.9583 95.3805 66.9583 95.3805H65.9363ZM56.3603 96.3745C55.9403 97.0185 55.2823 97.9285 54.6663 98.4885L55.5483 98.9925C56.1223 98.3765 56.7383 97.4945 57.2003 96.8225L56.3603 96.3745ZM58.1243 96.7945C58.3343 97.4245 58.5023 98.2645 58.5303 98.7965L59.4823 98.6145C59.4263 98.0825 59.2443 97.2705 59.0063 96.6405L58.1243 96.7945ZM60.4343 96.8085C60.7843 97.3545 61.1343 98.1245 61.2463 98.6145L62.1283 98.3205C61.9743 97.8305 61.6103 97.1025 61.2323 96.5565L60.4343 96.8085ZM62.6883 96.6825C63.0803 97.0885 63.5283 97.6625 63.7243 98.0545L64.4943 97.6765C64.2843 97.2845 63.8363 96.7385 63.4163 96.3465L62.6883 96.6825ZM57.3683 86.1405C57.1863 88.1145 56.6963 89.5845 54.5963 90.3265C54.8063 90.4945 55.0583 90.8305 55.1703 91.0545C57.5223 90.1445 58.1243 88.4645 58.3483 86.1405H57.3683Z" fill="#5BD0FA"/>
<circle cx="37.629" cy="37.6583" r="36.3709" fill="#5BD0FA" stroke="#5BD0FA" stroke-width="1.5"/>
<path d="M32.7056 24.6077L17.7085 31.0684L13.929 26.9089C13.6915 26.6472 13.335 26.5285 12.9877 26.5941L9.73659 27.2142C8.9883 27.3569 8.65761 28.2427 9.131 28.8409L15.2514 36.5742C15.5105 36.9019 15.9442 37.0368 16.3432 36.9151L40.1587 29.6464C45.6754 27.9625 47.6073 26.1708 48.2825 25.0855C48.611 24.5582 48.5866 23.8859 48.2301 23.3779C46.9719 21.5799 44.9818 21.0328 43.5729 20.9506C41.6777 20.8397 40.2413 21.3613 39.0939 21.8559L37.9686 22.3408L32.7056 24.6077ZM32.7056 24.6077V24.6077Z" stroke="white" stroke-width="1.75" stroke-linecap="round" stroke-linejoin="round"/>
<path d="M35.6162 31.0327L32.7307 38.5446C32.6189 38.8359 32.3788 39.0601 32.0797 39.151L29.1255 40.0529C28.4535 40.2583 27.7805 39.7334 27.816 39.0309L28.1027 33.3258L35.6162 31.0327Z" stroke="white" stroke-width="1.75" stroke-linecap="round" stroke-linejoin="round"/>
<path d="M31.5935 25.0868L23.2357 22.6093C23.0112 22.5426 22.7709 22.5558 22.5552 22.6464L21.1286 23.2441C20.5047 23.5058 20.307 24.2936 20.7326 24.8188L23.7032 28.486L31.5935 25.0868Z" stroke="white" stroke-width="1.75" stroke-linecap="round" stroke-linejoin="round"/>
<path d="M43.2468 25.1094L42.4651 24.1394L45.7958 21.4539C46.1962 21.6198 46.5933 21.8331 46.9717 22.1055L43.2468 25.1094Z" stroke="white" stroke-width="1.75" stroke-linecap="round" stroke-linejoin="round"/>
<line x1="55.3801" y1="25.8969" x2="26.652" y2="54.625" stroke="white" stroke-width="1.75" stroke-linecap="round"/>
<path d="M60.7885 49.8575C60.7557 49.8561 60.7222 49.86 60.6885 49.8679C57.4847 50.6349 54.9072 53.0073 53.8777 56.1373C53.7938 56.3921 53.9845 56.6561 54.2532 56.6561H56.8075C56.9243 56.6561 57.0394 56.634 57.1475 56.5934C58.0961 55.9828 58.9225 55.201 59.583 54.2914C60.4163 53.1222 60.9682 51.7593 61.1719 50.3069C61.2056 50.0665 61.0172 49.8611 60.7885 49.8575ZM60.7885 49.8575V49.8575ZM43.5308 46.6741C44.6 42.7634 48.1461 40.0457 52.2001 40.03H52.2005H52.2009C52.2245 40.0322 52.2477 40.0308 52.2698 40.03H52.2701H52.2705C56.3246 40.0457 59.8706 42.7634 60.9398 46.6741M43.5308 46.6741C43.4621 46.9249 43.6517 47.1731 43.912 47.1731H52.2353H60.5586C60.8189 47.1731 61.0085 46.9249 60.9398 46.6741M43.5308 46.6741C43.5649 46.6832 43.5648 46.6832 43.5308 46.6741ZM60.9398 46.6741C60.9058 46.6832 60.9057 46.6832 60.9398 46.6741ZM63.6033 45.7557C62.1824 40.8583 57.7851 37.4215 52.6897 37.2257C52.5242 37.2257 52.3815 37.2246 52.24 37.2246C52.2366 37.2246 52.2332 37.2244 52.2298 37.2244C52.2271 37.2244 52.2244 37.2246 52.2217 37.2246C52.0814 37.2244 51.9415 37.2244 51.7809 37.2257C47.5545 37.3882 43.8086 39.7808 41.8429 43.3864C41.8179 43.4318 41.7936 43.4783 41.7691 43.5243C41.7571 43.5471 41.7449 43.5699 41.733 43.5925C41.0321 44.9364 40.5818 46.4318 40.4437 48.0164C40.4418 48.0386 40.4396 48.0615 40.4377 48.0844C40.4337 48.1339 40.4301 48.1835 40.4267 48.2336C40.4234 48.2806 40.4204 48.3275 40.4177 48.3749C40.4155 48.4126 40.4133 48.4508 40.4115 48.4891C40.4077 48.5676 40.4048 48.6464 40.4026 48.7244C40.4023 48.7347 40.4017 48.745 40.4015 48.7557C40.3992 48.8477 40.3982 48.9391 40.398 49.0305C40.398 49.0391 40.3977 49.0479 40.3977 49.0564C40.3977 49.0757 40.3983 49.0945 40.3984 49.1136C40.3987 49.1757 40.3995 49.2379 40.4007 49.2998C40.4015 49.3379 40.4024 49.3756 40.4035 49.4133C40.4049 49.4596 40.4068 49.5048 40.4087 49.551C40.525 52.3824 41.6362 54.957 43.4024 56.9348C43.4061 56.9387 43.4098 56.9431 43.4135 56.9475C43.4587 56.9979 43.5044 57.0475 43.5504 57.0975C43.5615 57.1094 43.5726 57.1215 43.5837 57.1333C43.6286 57.1807 43.6738 57.2286 43.7194 57.2762C43.7278 57.2848 43.7363 57.2936 43.7448 57.3019C45.8947 59.514 48.9015 60.889 52.2298 60.889C54.6479 60.889 56.8962 60.1631 58.7698 58.9178C58.8307 58.881 58.8911 58.8424 58.9501 58.8021C63.1494 55.9095 65.0242 50.6526 63.6033 45.7557ZM45.4766 55.0325C44.3131 53.7169 43.5471 52.0779 43.2988 50.3069C43.265 50.0665 43.4534 49.8611 43.6822 49.8575C43.7149 49.8561 43.7484 49.86 43.7822 49.8679C46.9859 50.6349 49.5635 53.0073 50.593 56.1373C50.6769 56.3921 50.4861 56.6561 50.2175 56.6561H47.6632C47.5362 56.6561 47.4113 56.63 47.2952 56.582C46.622 56.147 46.0105 55.6251 45.4766 55.0325Z" stroke="white" stroke-width="1.5" stroke-linecap="round" stroke-linejoin="round"/>
</svg>
