<svg width="41" height="53" viewBox="0 0 41 53" fill="none" xmlns="http://www.w3.org/2000/svg">
<path d="M3.62854 45.3395V45.8835H10.0685V45.3395H3.62854ZM4.02854 46.5315V47.0515H9.71654V46.5315H4.02854ZM3.30854 47.7315V48.2755H10.3885V47.7315H3.30854ZM3.25254 49.0115V49.5475H10.4685V49.0115H3.25254ZM6.52454 45.6435V48.1235H7.14054V45.6435H6.52454ZM4.65254 44.4275C4.94054 44.7315 5.21254 45.1715 5.31654 45.4755L5.87654 45.2195C5.74854 44.9235 5.46854 44.5075 5.17254 44.2115L4.65254 44.4275ZM8.41254 44.2115C8.24454 44.5155 7.94854 44.9635 7.70854 45.2355L8.23654 45.4195C8.46854 45.1555 8.77254 44.7715 9.02854 44.4035L8.41254 44.2115ZM6.49254 48.1715C6.31654 49.7715 5.85254 50.6595 3.14854 51.0515C3.26054 51.1795 3.40454 51.4275 3.45254 51.5795C6.32454 51.1155 6.90854 50.0435 7.12454 48.1715H6.49254ZM7.30054 49.1715L6.74854 49.2835C7.28454 50.6835 8.37254 51.3555 10.2205 51.5955C10.2925 51.4275 10.4525 51.1715 10.5885 51.0435C8.83654 50.8755 7.75654 50.3235 7.30054 49.1715ZM15.7805 44.7475C16.5565 45.6515 17.9725 46.6035 19.1725 47.1395C19.2765 46.9715 19.4205 46.7555 19.5565 46.6115C18.3085 46.1395 16.9165 45.2195 16.0445 44.2115H15.4445C14.7965 45.1075 13.4525 46.1155 12.0925 46.6995C12.2205 46.8355 12.3725 47.0515 12.4445 47.1875C13.7725 46.5715 15.0925 45.5955 15.7805 44.7475ZM13.8845 47.5875V48.0515H17.7165V47.5875H13.8845ZM15.4765 45.6275V46.7155H16.0925V45.6275H15.4765ZM12.6205 50.9475L12.7005 51.5155C13.6205 51.4275 14.9405 51.2995 16.1965 51.1715L16.1885 50.6275C14.8685 50.7555 13.5085 50.8755 12.6205 50.9475ZM15.8445 49.0195L15.3325 49.1795C16.0045 50.4995 17.3085 51.2755 19.0685 51.5875C19.1485 51.4275 19.3085 51.1875 19.4365 51.0595C17.7325 50.8195 16.4365 50.1475 15.8445 49.0195ZM18.5485 48.8915C18.0285 49.2915 17.1485 49.8275 16.5005 50.1395L16.8845 50.4675C17.5405 50.1555 18.3645 49.6915 18.9965 49.2435L18.5485 48.8915ZM13.8845 46.4275V46.9155H17.5005V48.7635H13.8845V49.2515H18.1005V46.4275H13.8845ZM13.5245 46.4275V51.0835L14.1165 51.0195V46.4275H13.5245ZM25.1325 46.5955L24.8765 47.0995H27.6765V46.5955H25.1325ZM24.7005 47.6915L24.2045 47.8515C24.9645 49.6115 26.3485 50.9875 28.1405 51.5955C28.2365 51.4355 28.4125 51.1955 28.5485 51.0755C26.7805 50.5555 25.3885 49.2675 24.7005 47.6915ZM25.2445 47.6835C25.5885 47.9635 25.9885 48.3635 26.1645 48.6275L26.5645 48.2915C26.3645 48.0355 25.9645 47.6515 25.6205 47.3875L25.2445 47.6835ZM21.2525 45.1155V45.6835H28.3085V45.1155H21.2525ZM24.4365 44.2195V45.4115H25.0685V44.2195H24.4365ZM23.0685 45.6835C22.5965 46.8195 21.8205 47.9155 20.9645 48.6115C21.1005 48.7075 21.3245 48.9475 21.4205 49.0675C22.2765 48.2915 23.1165 47.1075 23.6445 45.8515L23.0685 45.6835ZM25.2685 45.6755C24.8925 46.6995 24.1245 47.8675 23.2045 48.5875C23.3325 48.6915 23.5245 48.8835 23.6205 49.0115C24.5805 48.2195 25.3965 46.9795 25.8685 45.8435L25.2685 45.6755ZM27.4845 46.5955V46.7155C26.8845 49.0835 25.2125 50.4435 23.2045 51.0915C23.3245 51.1955 23.5165 51.4435 23.5885 51.5875C25.6365 50.8675 27.3965 49.3875 28.0925 46.7555L27.7165 46.5715L27.6045 46.5955H27.4845ZM22.3085 47.4195V51.5795H22.9085V46.8515L22.8845 46.8435L22.3085 47.4195ZM33.3885 44.1875V45.6835H34.0205V44.1875H33.3885ZM33.3965 45.8755V51.6035H34.0125V45.8755H33.3965ZM30.1325 45.3315V45.9155H37.3405V45.3315H30.1325ZM30.9565 47.0115V50.5875H31.5565V47.5955H36.2125V47.0115H30.9565ZM35.9805 47.0115V49.8275C35.9805 49.9395 35.9405 49.9715 35.7965 49.9795C35.6605 49.9875 35.1725 49.9875 34.6285 49.9715C34.7165 50.1395 34.8125 50.3795 34.8365 50.5635C35.5245 50.5635 35.9725 50.5555 36.2525 50.4595C36.5165 50.3555 36.5965 50.1715 36.5965 49.8275V47.0115H35.9805Z" fill="white"/>
<ellipse cx="20.2381" cy="20.282" rx="19.3855" ry="19.3855" stroke="white" stroke-width="1.5" stroke-linecap="round" stroke-linejoin="round"/>
<line x1="31.6587" y1="12.2542" x2="13.3278" y2="16.807" stroke="white" stroke-linecap="round" stroke-linejoin="round"/>
<line x1="29.8154" y1="8.78203" x2="12.8636" y2="16.2372" stroke="white" stroke-linecap="round" stroke-linejoin="round"/>
<line x1="16.2139" y1="14.9375" x2="16.2139" y2="21.5436" stroke="white" stroke-linecap="round" stroke-linejoin="round"/>
<line x1="13.8823" y1="15.3066" x2="13.8823" y2="21.5435" stroke="white" stroke-linecap="round" stroke-linejoin="round"/>
<line x1="16.2812" y1="15.3759" x2="14.6917" y2="15.9583" stroke="white" stroke-linecap="round" stroke-linejoin="round"/>
<line x1="16.9466" y1="13.9164" x2="17.3066" y2="15.375" stroke="white" stroke-linecap="round" stroke-linejoin="round"/>
<path d="M7.90283 22.3828H25.1318C25.1318 22.3828 25.4707 27.4858 20.6127 29.6699H12.7219C12.7219 29.6699 7.90283 27.9753 7.90283 22.3828Z" stroke="white" stroke-linecap="round" stroke-linejoin="round"/>
<path d="M10.3882 24.0781C10.3882 24.0781 10.9315 26.7897 12.7219 27.2416" stroke="white" stroke-linecap="round" stroke-linejoin="round"/>
<path d="M12.7217 30.0645V31.1377H20.4995V30.0645" stroke="white" stroke-linecap="round" stroke-linejoin="round"/>
</svg>
