<svg width="75" height="100" viewBox="0 0 75 100" fill="none" xmlns="http://www.w3.org/2000/svg">
<path d="M10.9321 85.839V97.515H11.9681V85.839H10.9321ZM8.21611 88.779V89.773H14.4321V88.779H8.21611ZM10.9741 89.171C10.3721 90.949 9.05611 93.203 7.90811 94.351C8.09011 94.617 8.35611 95.051 8.46811 95.345C9.67211 94.029 10.9881 91.509 11.6601 89.493L10.9741 89.171ZM13.4801 84.775C12.2761 85.335 10.0781 85.811 8.18811 86.105C8.31411 86.329 8.45411 86.679 8.51011 86.917C10.4701 86.651 12.7521 86.175 14.2641 85.559L13.4801 84.775ZM11.9121 90.585L11.3381 91.089C11.8981 91.607 13.2701 93.049 13.7321 93.665L14.3761 92.867C14.0121 92.489 12.3741 90.949 11.9121 90.585ZM16.4621 84.971C15.9861 88.429 15.0061 93.133 14.1381 96.073L15.1601 96.297C16.0281 93.371 17.0501 88.751 17.6381 85.181L16.4621 84.971ZM12.9341 95.863L13.1861 96.955C15.0061 96.745 17.5821 96.423 20.0321 96.101L20.0041 95.121C17.3721 95.429 14.6421 95.709 12.9341 95.863ZM17.7781 91.845C18.7301 93.679 19.6401 96.087 19.9201 97.557L21.0121 97.207C20.7041 95.709 19.7521 93.343 18.7581 91.537L17.7781 91.845ZM25.3381 87.337V90.459C25.3381 92.349 25.1561 94.897 23.6021 96.717C23.8541 96.829 24.3021 97.123 24.4841 97.305C26.1081 95.401 26.3601 92.531 26.3601 90.473V87.337H25.3381ZM25.8561 87.337V88.149H34.2281V89.549H25.8561V90.361H35.2641V87.337H25.8561ZM24.3301 85.433V86.385H36.0901V85.433H24.3301ZM25.8001 91.579V92.447H36.4401V91.579H25.8001ZM29.5381 93.567V94.407H34.2981V93.567H29.5381ZM30.1681 90.249V92.013H31.2041V90.249H30.1681ZM34.0321 93.567V93.707C33.8641 95.653 33.6961 96.423 33.4581 96.647C33.3321 96.759 33.1921 96.787 32.9401 96.787C32.6741 96.787 31.9321 96.773 31.1901 96.703C31.3441 96.955 31.4421 97.319 31.4701 97.585C32.2401 97.641 32.9961 97.641 33.3741 97.613C33.7661 97.599 34.0601 97.515 34.2981 97.277C34.6621 96.927 34.8581 96.059 35.0401 93.987C35.0681 93.847 35.0821 93.567 35.0821 93.567H34.0321ZM29.3281 92.013C29.0901 94.309 28.4881 95.975 25.5201 96.787C25.7301 96.983 26.0101 97.361 26.1081 97.599C29.3421 96.619 30.0981 94.715 30.3641 92.013H29.3281ZM47.7661 84.677V94.435H48.7601V84.677H47.7661ZM43.3561 90.459L43.7621 91.383L51.2941 88.177L50.9021 87.281L43.3561 90.459ZM44.8681 85.993V95.345C44.8681 96.871 45.3441 97.249 46.9541 97.249C47.3041 97.249 50.0201 97.249 50.3981 97.249C51.8681 97.249 52.2041 96.633 52.3721 94.701C52.0781 94.645 51.6721 94.477 51.4201 94.309C51.3221 95.919 51.1821 96.297 50.3561 96.297C49.7961 96.297 47.4441 96.297 46.9821 96.297C46.0441 96.297 45.8761 96.129 45.8761 95.359V85.993H44.8681ZM50.7201 87.421C50.7201 90.207 50.7061 92.195 50.6221 92.559C50.5521 92.881 50.4121 92.937 50.2021 92.937C50.0481 92.937 49.5861 92.937 49.2641 92.923C49.3901 93.161 49.4741 93.553 49.5161 93.833C49.8941 93.833 50.4541 93.833 50.8321 93.735C51.2381 93.637 51.5041 93.371 51.5881 92.811C51.6861 92.265 51.7281 90.165 51.7281 87.533L51.7701 87.337L51.0281 87.057L50.8461 87.211L50.5941 87.421H50.7201ZM39.4501 88.051V89.045H43.9021V88.051H39.4501ZM41.2561 84.845V93.931H42.2501V84.845H41.2561ZM39.3241 94.295L39.7441 95.331C40.9901 94.799 42.5721 94.085 44.0701 93.371L43.8461 92.433C42.1801 93.147 40.4581 93.875 39.3241 94.295ZM59.6241 87.435H63.4181V88.359H59.6241V87.435ZM58.7561 86.805V88.989H64.3281V86.805H58.7561ZM59.1341 91.551H63.9081V94.673H59.1341V91.551ZM58.2941 90.893V95.345H64.7901V90.893H58.2941ZM60.6881 92.699H62.3261V93.525H60.6881V92.699ZM60.0301 92.153V94.085H63.0121V92.153H60.0301ZM57.3421 89.633V90.291H65.7841V89.633H57.3421ZM61.0381 88.569V89.927H61.9621V88.569H61.0381ZM55.7041 85.251V97.543H56.6981V86.147H66.4001V97.543H67.4361V85.251H55.7041ZM56.3201 96.101V96.997H66.9461V96.101H56.3201Z" fill="#909090"/>
<circle cx="37.6422" cy="38.0538" r="36.3724" stroke="#909090" stroke-width="1.5"/>
<path d="M58.811 26.963L46.16 20.6375L29.5403 28.5747L15.7732 23.1178L17.6337 38.621L16.641 54.373L30.2846 56.109L42.9355 52.5126L56.7838 56.109V39.986L58.811 26.963Z" stroke="#909090" stroke-width="2" stroke-linecap="round" stroke-linejoin="round"/>
<path d="M24.0373 26.3928C24.0373 26.3928 24.1883 32.5903 16.8181 31.8231" stroke="#909090" stroke-width="2" stroke-linecap="round" stroke-linejoin="round"/>
<line x1="30.5403" y1="30.1411" x2="30.5403" y2="35.0165" stroke="#909090" stroke-width="2" stroke-linecap="round" stroke-linejoin="round"/>
<line x1="24.1992" y1="40.7373" x2="18.6035" y2="40.7373" stroke="#909090" stroke-width="2" stroke-linecap="round" stroke-linejoin="round"/>
<line x1="36.1216" y1="38.7373" x2="55.0827" y2="38.7373" stroke="#909090" stroke-width="2" stroke-linecap="round" stroke-linejoin="round"/>
<line x1="45.7032" y1="22.3597" x2="44.1133" y2="51.0732" stroke="#909090" stroke-width="2" stroke-linecap="round" stroke-linejoin="round"/>
<path d="M53.6018 43.3027L49.3845 44.079V54.3123" stroke="#909090" stroke-width="2" stroke-linecap="round" stroke-linejoin="round"/>
<line x1="56.3665" y1="34.8706" x2="45.316" y2="30.4412" stroke="#909090" stroke-width="2" stroke-linecap="round" stroke-linejoin="round"/>
<path d="M43.9095 29.1409L35.8658 31.7275L33.3848 36.6608" stroke="#909090" stroke-width="2" stroke-linecap="round" stroke-linejoin="round"/>
<path d="M43.0589 45.8152C43.0589 45.8152 35.7914 48.3492 35.6426 54.5861" stroke="#909090" stroke-width="2" stroke-linecap="round" stroke-linejoin="round"/>
<line x1="31.1602" y1="47.9314" x2="31.1602" y2="54.3026" stroke="#909090" stroke-width="2" stroke-linecap="round" stroke-linejoin="round"/>
<path d="M26.496 44.2173C26.496 44.2173 23.0245 46.3116 22.0986 47.7998V55.0682" stroke="#909090" stroke-width="2" stroke-linecap="round" stroke-linejoin="round"/>
<path d="M27.1614 41.226C27.1614 39.9119 28.227 38.8467 29.5404 38.8467C30.8546 38.8467 31.9204 39.9119 31.9204 41.226C31.9204 42.5404 30.8546 43.605 29.5404 43.605C28.227 43.605 27.1614 42.5404 27.1614 41.226Z" stroke="#909090" stroke-width="2" stroke-linecap="round" stroke-linejoin="round"/>
</svg>
