<svg width="35" height="35" viewBox="0 0 35 35" fill="none" xmlns="http://www.w3.org/2000/svg">
<circle cx="17.6867" cy="17.6029" r="16.7953" fill="#5BD0FA"/>
<line x1="27.5325" y1="10.7303" x2="11.7805" y2="14.6426" stroke="white" stroke-linecap="round" stroke-linejoin="round"/>
<line x1="25.9499" y1="7.72832" x2="11.3855" y2="14.1336" stroke="white" stroke-linecap="round" stroke-linejoin="round"/>
<line x1="14.2666" y1="13.04" x2="14.2666" y2="18.6298" stroke="white" stroke-linecap="round" stroke-linejoin="round"/>
<line x1="12.2466" y1="13.3601" x2="12.2466" y2="18.63" stroke="white" stroke-linecap="round" stroke-linejoin="round"/>
<line x1="14.2187" y1="13.4384" x2="12.967" y2="13.897" stroke="white" stroke-linecap="round" stroke-linejoin="round"/>
<line x1="14.9158" y1="12.1378" x2="15.1957" y2="13.2718" stroke="white" stroke-linecap="round" stroke-linejoin="round"/>
<path d="M6.99951 19.4233H21.9264C21.9264 19.4233 22.22 23.8447 18.0112 25.7368H11.1747C11.1747 25.7368 6.99951 24.2688 6.99951 19.4233Z" fill="#5BD0FA" stroke="white" stroke-linecap="round" stroke-linejoin="round"/>
<path d="M9.15283 20.8916C9.15283 20.8916 9.62354 23.2408 11.1747 23.6324L9.15283 20.8916Z" fill="#5BD0FA"/>
<path d="M9.15283 20.8916C9.15283 20.8916 9.62354 23.2408 11.1747 23.6324" stroke="white" stroke-linecap="round" stroke-linejoin="round"/>
<path d="M11.1746 26.0793V27.0092H17.9131V26.0793" fill="#5BD0FA"/>
<path d="M11.1746 26.0793V27.0092H17.9131V26.0793" stroke="white" stroke-linecap="round" stroke-linejoin="round"/>
</svg>
