<svg width="75" height="100" viewBox="0 0 75 100" fill="none" xmlns="http://www.w3.org/2000/svg">
<path d="M8.16952 86.6368V87.5888H19.4395V86.6368H8.16952ZM8.86952 88.7228V89.6328H18.8235V88.7228H8.86952ZM7.60952 90.8228V91.7748H19.9995V90.8228H7.60952ZM7.51152 93.0628V94.0008H20.1395V93.0628H7.51152ZM13.2375 87.1688V91.5088H14.3155V87.1688H13.2375ZM9.96152 85.0408C10.4655 85.5728 10.9415 86.3428 11.1235 86.8748L12.1035 86.4268C11.8795 85.9088 11.3895 85.1808 10.8715 84.6628L9.96152 85.0408ZM16.5415 84.6628C16.2475 85.1948 15.7295 85.9788 15.3095 86.4548L16.2335 86.7768C16.6395 86.3148 17.1715 85.6428 17.6195 84.9988L16.5415 84.6628ZM13.1815 91.5928C12.8735 94.3928 12.0615 95.9468 7.32952 96.6328C7.52552 96.8568 7.77752 97.2908 7.86152 97.5568C12.8875 96.7448 13.9095 94.8688 14.2875 91.5928H13.1815ZM14.5955 93.3428L13.6295 93.5388C14.5675 95.9888 16.4715 97.1648 19.7055 97.5848C19.8315 97.2908 20.1115 96.8428 20.3495 96.6188C17.2835 96.3248 15.3935 95.3588 14.5955 93.3428ZM29.4355 85.6008C30.7935 87.1828 33.2715 88.8488 35.3715 89.7868C35.5535 89.4928 35.8055 89.1148 36.0435 88.8628C33.8595 88.0368 31.4235 86.4268 29.8975 84.6628H28.8475C27.7135 86.2308 25.3615 87.9948 22.9815 89.0168C23.2055 89.2548 23.4715 89.6328 23.5975 89.8708C25.9215 88.7928 28.2315 87.0848 29.4355 85.6008ZM26.1175 90.5708V91.3828H32.8235V90.5708H26.1175ZM28.9035 87.1408V89.0448H29.9815V87.1408H28.9035ZM23.9055 96.4508L24.0455 97.4448C25.6555 97.2908 27.9655 97.0668 30.1635 96.8428L30.1495 95.8908C27.8395 96.1148 25.4595 96.3248 23.9055 96.4508ZM29.5475 93.0768L28.6515 93.3568C29.8275 95.6668 32.1095 97.0248 35.1895 97.5708C35.3295 97.2908 35.6095 96.8708 35.8335 96.6468C32.8515 96.2268 30.5835 95.0508 29.5475 93.0768ZM34.2795 92.8528C33.3695 93.5528 31.8295 94.4908 30.6955 95.0368L31.3675 95.6108C32.5155 95.0648 33.9575 94.2528 35.0635 93.4688L34.2795 92.8528ZM26.1175 88.5408V89.3948H32.4455V92.6288H26.1175V93.4828H33.4955V88.5408H26.1175ZM25.4875 88.5408V96.6888L26.5235 96.5768V88.5408H25.4875ZM45.8015 88.8348L45.3535 89.7168H50.2535V88.8348H45.8015ZM45.0455 90.7528L44.1775 91.0328C45.5075 94.1128 47.9295 96.5208 51.0655 97.5848C51.2335 97.3048 51.5415 96.8848 51.7795 96.6748C48.6855 95.7648 46.2495 93.5108 45.0455 90.7528ZM45.9975 90.7388C46.5995 91.2288 47.2995 91.9288 47.6075 92.3908L48.3075 91.8028C47.9575 91.3548 47.2575 90.6828 46.6555 90.2208L45.9975 90.7388ZM39.0115 86.2448V87.2388H51.3595V86.2448H39.0115ZM44.5835 84.6768V86.7628H45.6895V84.6768H44.5835ZM42.1895 87.2388C41.3635 89.2268 40.0055 91.1448 38.5075 92.3628C38.7455 92.5308 39.1375 92.9508 39.3055 93.1608C40.8035 91.8028 42.2735 89.7308 43.1975 87.5328L42.1895 87.2388ZM46.0395 87.2248C45.3815 89.0168 44.0375 91.0608 42.4275 92.3208C42.6515 92.5028 42.9875 92.8388 43.1555 93.0628C44.8355 91.6768 46.2635 89.5068 47.0895 87.5188L46.0395 87.2248ZM49.9175 88.8348V89.0448C48.8675 93.1888 45.9415 95.5688 42.4275 96.7028C42.6375 96.8848 42.9735 97.3188 43.0995 97.5708C46.6835 96.3108 49.7635 93.7208 50.9815 89.1148L50.3235 88.7928L50.1275 88.8348H49.9175ZM40.8595 90.2768V97.5568H41.9095V89.2828L41.8675 89.2688L40.8595 90.2768ZM60.2495 84.6208V87.2388H61.3555V84.6208H60.2495ZM60.2635 87.5748V97.5988H61.3415V87.5748H60.2635ZM54.5515 86.6228V87.6448H67.1655V86.6228H54.5515ZM55.9935 89.5628V95.8208H57.0435V90.5848H65.1915V89.5628H55.9935ZM64.7855 89.5628V94.4908C64.7855 94.6868 64.7155 94.7428 64.4635 94.7568C64.2255 94.7708 63.3715 94.7708 62.4195 94.7428C62.5735 95.0368 62.7415 95.4568 62.7835 95.7788C63.9875 95.7788 64.7715 95.7648 65.2615 95.5968C65.7235 95.4148 65.8635 95.0928 65.8635 94.4908V89.5628H64.7855Z" fill="#5BD0FA"/>
<ellipse cx="37.4298" cy="38.0521" rx="36.3709" ry="36.3709" fill="#5BD0FA" stroke="#5BD0FA" stroke-width="1.5" stroke-linecap="round" stroke-linejoin="round"/>
<line x1="58.8118" y1="23.0695" x2="24.5396" y2="31.5815" stroke="white" stroke-width="2" stroke-linecap="round" stroke-linejoin="round"/>
<line x1="55.3668" y1="16.5594" x2="23.6755" y2="30.497" stroke="white" stroke-width="2" stroke-linecap="round" stroke-linejoin="round"/>
<line x1="29.9412" y1="28.0886" x2="29.9412" y2="40.3591" stroke="white" stroke-width="2" stroke-linecap="round" stroke-linejoin="round"/>
<line x1="25.5669" y1="28.7815" x2="25.5669" y2="40.3592" stroke="white" stroke-width="2" stroke-linecap="round" stroke-linejoin="round"/>
<line x1="29.9693" y1="28.9275" x2="27.1034" y2="29.9776" stroke="white" stroke-width="2" stroke-linecap="round" stroke-linejoin="round"/>
<line x1="31.3294" y1="26.157" x2="31.9752" y2="28.7734" stroke="white" stroke-width="2" stroke-linecap="round" stroke-linejoin="round"/>
<path d="M14.2866 41.9949H46.6115C46.6115 41.9949 47.2473 51.5693 38.1328 55.667H23.3281C23.3281 55.667 14.2866 52.4877 14.2866 41.9949Z" stroke="white" stroke-width="2" stroke-linecap="round" stroke-linejoin="round"/>
<path d="M18.95 45.1743C18.95 45.1743 19.9692 50.2617 23.3284 51.1096" stroke="white" stroke-width="2" stroke-linecap="round" stroke-linejoin="round"/>
<path d="M23.3279 56.4084V58.4221H37.9204V56.4084" stroke="white" stroke-width="2" stroke-linecap="round" stroke-linejoin="round"/>
</svg>
