<svg width="36" height="36" viewBox="0 0 36 36" fill="none" xmlns="http://www.w3.org/2000/svg">
<ellipse cx="18.0846" cy="18.4018" rx="16.7953" ry="16.7953" stroke="#909090" stroke-width="1.5"/>
<path d="M17.925 14.4314H9.88025C9.35211 14.4314 8.92395 14.8594 8.92395 15.3877V16.8137C7.19629 16.9164 5.8291 18.3468 5.8291 20.1006C5.8291 21.854 7.19629 23.2845 8.92395 23.3872V23.5203C8.92395 24.3389 9.58746 25.0024 10.4061 25.0024H17.3993C18.2178 25.0024 18.8815 24.3389 18.8815 23.5203V15.3877C18.8815 14.8594 18.4532 14.4314 17.925 14.4314ZM6.69904 20.1006C6.69904 18.8273 7.67749 17.7858 8.92395 17.6835V22.5175C7.67749 22.415 6.69904 21.3734 6.69904 20.1006Z" stroke="#909090" stroke-linecap="round" stroke-linejoin="round"/>
<path d="M20.6875 17.7955V23.8914C20.6875 24.5051 21.1848 25.0023 21.7984 25.0023H27.0402C27.6537 25.0023 28.1512 24.5051 28.1512 23.8914V23.7916C29.4461 23.7147 30.4709 22.6425 30.4709 21.3281C30.4709 20.0138 29.4461 18.9414 28.1512 18.8646V17.7955C28.1512 17.4 27.8302 17.0789 27.4343 17.0789H21.4043C21.0084 17.0789 20.6875 17.4 20.6875 17.7955ZM28.1512 23.1398V19.5166C29.0855 19.5931 29.8188 20.3738 29.8188 21.3281C29.8188 22.2822 29.0855 23.0632 28.1512 23.1398Z" stroke="#909090" stroke-linecap="round" stroke-linejoin="round"/>
<path d="M24.2937 14.074C24.311 14.0132 24.2407 13.9656 24.1896 14.0024C23.9113 14.2032 23.4242 14.6487 23.7918 15.1021C24.1486 15.5425 24.181 15.8343 24.1166 16.0645C24.0983 16.1297 24.1757 16.1786 24.2257 16.1332C24.4126 15.9622 24.6434 15.7026 24.5801 15.509C24.4859 15.2211 24.1081 14.7243 24.2937 14.074Z" stroke="#909090" stroke-linecap="round" stroke-linejoin="round"/>
<path d="M13.2006 11.6551C13.218 11.5947 13.1478 11.5467 13.0966 11.5838C12.8183 11.7848 12.3312 12.2301 12.6988 12.6832C13.0556 13.1237 13.088 13.4154 13.0236 13.6457C13.0053 13.7108 13.0827 13.7601 13.1328 13.7144C13.3195 13.5435 13.5504 13.2839 13.4871 13.0903C13.3929 12.8022 13.0151 12.3055 13.2006 11.6551Z" stroke="#909090" stroke-linecap="round" stroke-linejoin="round"/>
<path d="M25.8281 11.9039C25.8501 11.8269 25.7608 11.7658 25.6958 11.8128C25.3418 12.0686 24.7226 12.6347 25.19 13.2111C25.6437 13.771 25.6849 14.1422 25.6029 14.4347C25.5797 14.5174 25.6782 14.5802 25.7417 14.5221C25.9793 14.3048 26.2729 13.9747 26.1923 13.7285C26.0726 13.3623 25.5921 12.7306 25.8281 11.9039Z" stroke="#909090" stroke-linecap="round" stroke-linejoin="round"/>
<path d="M14.5145 9.32093C14.5423 9.22377 14.4296 9.14686 14.3476 9.20594C13.9013 9.52833 13.1202 10.2423 13.7096 10.9696C14.2819 11.6755 14.3339 12.1439 14.2305 12.5127C14.2012 12.6174 14.3253 12.6962 14.4055 12.6229C14.7052 12.3486 15.0754 11.9326 14.9739 11.6222C14.8228 11.1604 14.2169 10.3637 14.5145 9.32093Z" stroke="#909090" stroke-linecap="round" stroke-linejoin="round"/>
</svg>
