<svg width="37" height="36" viewBox="0 0 37 36" fill="none" xmlns="http://www.w3.org/2000/svg">
<circle cx="18.467" cy="17.8269" r="16.7956" stroke="#909090" stroke-width="1.5"/>
<path d="M25.6902 19.8543L26.9669 21.4936C27.5529 22.2443 28.1387 22.9951 28.7242 23.7462C28.9093 23.9842 28.8924 24.1339 28.6568 24.3175C26.2972 26.1572 23.9371 27.9979 21.5763 29.8397C21.0557 30.2454 20.5357 30.6516 20.016 31.0578C19.6945 31.3093 19.5862 31.3002 19.3304 30.9729C17.4772 28.598 15.6246 26.2225 13.7724 23.846L6.45897 14.4655C6.24095 14.1857 6.25426 14.0592 6.53655 13.8397C9.42168 11.588 12.3074 9.33687 15.1936 7.08662C15.4458 6.8896 15.5902 6.90828 15.7917 7.1656C16.5459 8.12959 17.2997 9.09444 18.0525 10.06C18.1141 10.1391 18.1783 10.216 18.2453 10.3001C19.9203 7.00935 23.9464 5.69917 27.2375 7.37459C30.5286 9.04964 31.8385 13.0756 30.1634 16.3669C29.2637 18.1345 27.6255 19.4115 25.6916 19.8529L25.6902 19.8543ZM16.677 20.4493C16.6689 20.3457 16.6632 20.2724 16.6567 20.1982C16.6504 20.124 16.6403 20.0498 16.6387 19.9749C16.6076 18.6243 17.1243 17.3182 18.0715 16.3549C18.1566 16.289 18.1777 16.1694 18.1203 16.0786C17.4125 14.5255 17.3364 12.758 17.9083 11.15C17.9609 11.025 17.9349 10.8808 17.8418 10.7822C17.2936 10.0889 16.7522 9.38948 16.2084 8.69331C16.1181 8.57796 16.0278 8.4626 15.937 8.34663C15.652 7.98299 15.1266 7.91853 14.7624 8.20259L7.7036 13.706C7.33867 13.9904 7.27355 14.5172 7.55815 14.8818L11.6783 20.1649C11.8014 20.0888 11.907 20.0153 12.0212 19.9556C12.1614 19.8637 12.3496 19.9028 12.4414 20.0429C12.4444 20.0473 12.4469 20.0518 12.4495 20.056C12.5363 20.1917 12.4969 20.3717 12.3615 20.4587C12.3577 20.461 12.3537 20.4635 12.3497 20.4658C12.2632 20.5286 12.1736 20.5877 12.0663 20.6616L16.7969 26.7253C17.1236 25.9777 17.3162 25.1783 17.3658 24.3641C17.4149 23.3145 17.2394 22.2666 16.8505 21.2904C16.8249 21.2325 16.7796 21.1856 16.7226 21.1583C16.3835 20.999 16.0401 20.8535 15.6995 20.7016C15.493 20.6099 15.4075 20.4527 15.4717 20.2874C15.5418 20.107 15.7132 20.0471 15.9309 20.1345C16.1706 20.2304 16.4052 20.3342 16.677 20.4493ZM26.0075 21.2612C25.9333 21.314 25.8744 21.3588 25.8143 21.4013C25.575 21.569 25.3368 21.7399 25.0947 21.9013C24.9861 21.9978 24.818 21.984 24.727 21.8682H24.727C24.667 21.7615 24.6446 21.6378 24.6633 21.5169C24.6712 21.4508 24.7737 21.3874 24.8437 21.3364C25.1016 21.149 25.3638 20.9692 25.6329 20.7799C25.4306 20.5203 25.2491 20.2745 25.0491 20.0429C24.9891 19.9948 24.9135 19.9708 24.8368 19.9753C24.3959 19.9683 23.9505 20.0102 23.5148 19.9626C21.5177 19.7757 19.7167 18.6831 18.6282 16.9984C18.5848 16.9345 18.5391 16.872 18.4877 16.7993C18.0412 17.2529 17.6999 17.7991 17.4874 18.3992C17.1495 19.4016 17.1739 20.4908 17.5562 21.4771C18.2308 23.3284 18.1299 25.3734 17.276 27.1491C17.2187 27.2717 17.2697 27.3376 17.3329 27.4184C17.8689 28.1046 18.4043 28.7907 18.9393 29.4769C19.0323 29.5963 19.1255 29.7157 19.2192 29.8353C19.504 30.1995 20.0299 30.2644 20.3944 29.9802L27.451 24.4766C27.8157 24.1925 27.8809 23.6663 27.5967 23.3013L26.0075 21.2612ZM24.2063 19.3941C27.5543 19.3939 30.2682 16.6795 30.2679 13.3316C30.2676 9.98372 27.5532 7.26973 24.2052 7.27009C20.8649 7.27034 18.1543 9.97285 18.1438 13.3129C18.145 16.6641 20.8558 19.3831 24.2068 19.3946L24.2063 19.3941Z" fill="#909090"/>
<path d="M15.7336 15.9301C15.7336 16.1341 15.7394 16.3386 15.7336 16.5427C15.7241 16.815 15.5924 16.9434 15.3313 16.9005C14.1788 16.7723 13.0712 16.3807 12.0941 15.7562C11.3268 15.2776 10.9553 14.3593 11.1738 13.4818C11.3319 12.6299 12.0035 11.9669 12.8572 11.8198C13.8932 11.6096 14.9292 12.1797 15.3059 13.1677C15.5709 13.8898 15.7156 14.6507 15.7341 15.4197C15.7457 15.589 15.7341 15.7601 15.7341 15.9301H15.7336ZM15.1418 16.2534C15.1212 15.8163 15.1148 15.4042 15.0793 14.9911C15.0523 14.4197 14.9249 13.8571 14.7029 13.3301C14.4668 12.7505 13.8956 12.3785 13.2701 12.3968C12.6235 12.3913 12.0442 12.7962 11.8271 13.4052C11.5661 14.1176 11.8503 14.9151 12.5034 15.3019C13.3138 15.7851 14.2097 16.1081 15.1418 16.253V16.2534Z" fill="#909090"/>
<path d="M14.8835 19.978C14.902 20.1455 14.7814 20.2959 14.6142 20.3142C14.5863 20.3174 14.5584 20.3164 14.5307 20.312L13.3818 20.1905C13.1801 20.1686 13.0704 20.0615 13.0694 19.8852C13.06 19.7296 13.1787 19.5958 13.3343 19.5864C13.3507 19.5859 13.3671 19.5862 13.3835 19.5881C13.808 19.6162 14.2325 19.6667 14.6513 19.7234C14.782 19.7373 14.8817 19.8464 14.8835 19.978Z" fill="#909090"/>
<path d="M21.3291 22.9869C20.9416 22.8926 20.5517 22.8079 20.1674 22.7006C20.0071 22.6683 19.9032 22.512 19.9356 22.3517C19.9389 22.3358 19.9434 22.3198 19.9494 22.3047C20.0136 22.1471 20.1907 22.0681 20.3511 22.1252C20.7157 22.2002 21.0807 22.2712 21.446 22.3414C21.6161 22.3557 21.7449 22.5021 21.7373 22.673C21.7234 22.8597 21.5817 22.9585 21.3291 22.9869Z" fill="#909090"/>
<path d="M22.6859 22.9165C22.5282 22.8979 22.3988 22.7816 22.3634 22.6267C22.3232 22.4807 22.4096 22.3297 22.5557 22.2898L22.5582 22.2892C22.9581 22.1624 23.3601 22.0412 23.7639 21.9279C23.9055 21.8792 24.0596 21.9546 24.1082 22.0966C24.109 22.0987 24.1095 22.1007 24.1103 22.1031C24.1806 22.2262 24.1378 22.3835 24.0147 22.4535C24.0054 22.4585 23.996 22.4634 23.9863 22.4676C23.5579 22.6314 23.119 22.7689 22.6859 22.9165Z" fill="#909090"/>
<path d="M19.0727 22.2645C19.0169 22.2502 18.9622 22.2323 18.9086 22.2113C18.5776 22.0554 18.2463 21.8992 17.9178 21.7374C17.7055 21.6315 17.6303 21.465 17.7119 21.2976C17.7937 21.1299 17.9681 21.0852 18.1847 21.1885C18.5286 21.3477 18.8709 21.5134 19.2112 21.6827C19.3518 21.7364 19.4265 21.8904 19.3813 22.0341C19.3471 22.175 19.2176 22.2716 19.0727 22.2645Z" fill="#909090"/>
<path d="M24.1984 18.7656C21.2007 18.7643 18.7714 16.333 18.7727 13.3353C18.7739 10.3376 21.205 7.90845 24.2026 7.90967C27.2006 7.91101 29.6296 10.3419 29.6284 13.3397C29.6284 13.3466 29.6284 13.3535 29.6284 13.3604C29.5986 16.343 27.1809 18.7494 24.1984 18.7656ZM20.6676 16.5896C20.797 16.4506 20.9087 16.3218 21.0302 16.2034C21.1294 16.0646 21.3223 16.0325 21.4611 16.1315C21.5999 16.2308 21.6318 16.4237 21.5326 16.5625C21.5134 16.5894 21.49 16.613 21.4634 16.6328C21.3433 16.7524 21.2115 16.8602 21.0742 16.9843C21.8727 17.6687 22.8744 18.0712 23.9244 18.1288V17.7349C23.9242 17.6533 23.9283 17.5719 23.9373 17.4907C23.9427 17.3387 24.0703 17.22 24.2224 17.2255H24.2233C24.3719 17.2073 24.507 17.3135 24.5249 17.4622C24.5261 17.4717 24.5269 17.4812 24.527 17.4907C24.5433 17.6973 24.5311 17.9062 24.5311 18.1277C25.6167 18.0509 26.6445 17.6089 27.4473 16.8737C27.3162 16.7532 27.1941 16.6462 27.0795 16.5328C26.8783 16.335 26.8513 16.1615 26.9908 16.0198C27.1304 15.8781 27.3094 15.8977 27.5188 16.1069C27.6277 16.2169 27.7312 16.3313 27.856 16.4596C28.5531 15.6428 28.9576 14.6166 29.0055 13.5435C28.7804 13.5435 28.5776 13.5481 28.3749 13.5435C28.1509 13.5372 28.0151 13.4174 28.0146 13.2363C28.0142 13.0553 28.1489 12.9365 28.3728 12.9326C28.575 12.9294 28.7767 12.9326 28.9948 12.9326C28.9114 11.9197 28.5076 10.9595 27.8422 10.1909C27.6632 10.3905 27.512 10.5764 27.3417 10.7408C27.2181 10.8486 27.0306 10.8356 26.9231 10.7122C26.8417 10.6184 26.827 10.4843 26.8862 10.3751C26.9298 10.3058 26.9835 10.2432 27.0455 10.1897C27.1841 10.0627 27.3284 9.94226 27.4801 9.81128C26.6705 9.06458 25.6311 8.61536 24.5328 8.53748C24.5468 8.78186 24.543 9.0271 24.5217 9.271C24.4883 9.38843 24.3987 9.48193 24.2828 9.52002C24.1611 9.51099 24.0481 9.45374 23.9686 9.36121C23.9193 9.31177 23.931 9.19385 23.9282 9.10706C23.923 8.91907 23.9282 8.73169 23.9282 8.53333C22.8804 8.59375 21.8811 8.99622 21.0837 9.67896C21.2461 9.83826 21.3953 9.97669 21.5348 10.1254C21.5878 10.1823 21.6611 10.2655 21.6527 10.3268C21.64 10.442 21.5911 10.5504 21.5127 10.6359C21.4022 10.726 21.2397 10.7094 21.1497 10.5991C21.1481 10.597 21.1465 10.595 21.1448 10.5929C20.9812 10.4335 20.829 10.2627 20.6633 10.0868C19.9454 10.8722 19.5065 11.8722 19.4142 12.9324H19.9762C20.214 12.9347 20.3557 13.0516 20.354 13.2372C20.3525 13.4229 20.2102 13.54 19.972 13.5435H19.4056C19.4563 14.6752 19.9019 15.7538 20.665 16.5912L20.6676 16.5896Z" fill="#909090"/>
<path d="M26.4793 11.4832C26.4566 11.5485 26.431 11.6128 26.4018 11.6757C25.9952 12.4679 25.5909 13.262 25.1754 14.0496C25.1154 14.1609 25.0249 14.2528 24.9146 14.3148C24.1214 14.733 23.3228 15.1375 22.5267 15.5498C22.3676 15.6327 22.218 15.6702 22.08 15.5291C21.9419 15.3878 21.9885 15.2466 22.0662 15.0973C22.481 14.2943 22.8912 13.4883 23.3094 12.6868C23.3543 12.5963 23.4244 12.5206 23.5111 12.469C24.3358 12.0371 25.1633 11.6105 25.9939 11.1891C26.1395 11.0943 26.335 11.1358 26.4296 11.2816C26.4685 11.3414 26.4858 11.4122 26.4793 11.4832ZM25.425 12.2315L25.3897 12.1942C25.0184 12.3854 24.6519 12.5961 24.2685 12.761C23.9726 12.8808 23.737 13.1148 23.6151 13.4098C23.4433 13.7974 23.2348 14.1688 23.0393 14.5514C23.0733 14.5595 23.088 14.5686 23.0966 14.5647C23.5863 14.3145 24.0755 14.0634 24.5639 13.8112C24.6052 13.7891 24.6389 13.7551 24.6611 13.714C24.9157 13.221 25.1689 12.726 25.4226 12.2315H25.425Z" fill="#909090"/>
</svg>
