<svg width="36" height="36" viewBox="0 0 36 36" fill="none" xmlns="http://www.w3.org/2000/svg">
<circle cx="18.0657" cy="17.6036" r="16.796" fill="#5BD0FA" stroke="#5BD0FA" stroke-width="1.5"/>
<path d="M27.8409 12.4821L21.999 9.56104L14.3244 13.2263L7.96704 10.7064L8.82614 17.8656L8.36777 25.1394L14.6681 25.9412L20.51 24.2804L26.9048 25.9412V18.4958L27.8409 12.4821Z" stroke="white" stroke-linecap="round" stroke-linejoin="round"/>
<path d="M11.7831 12.2188C11.7831 12.2188 11.8528 15.0807 8.44946 14.7263" stroke="white" stroke-linecap="round" stroke-linejoin="round"/>
<line x1="14.8245" y1="13.9878" x2="14.8245" y2="16.1627" stroke="white" stroke-linecap="round" stroke-linejoin="round"/>
<line x1="11.8198" y1="18.8809" x2="9.31227" y2="18.8809" stroke="white" stroke-linecap="round" stroke-linejoin="round"/>
<line x1="17.4016" y1="17.8809" x2="26.081" y2="17.8809" stroke="white" stroke-linecap="round" stroke-linejoin="round"/>
<line x1="21.8241" y1="10.3965" x2="21.0942" y2="23.5795" stroke="white" stroke-linecap="round" stroke-linejoin="round"/>
<path d="M25.4355 20.0273L23.488 20.3859V25.1113" stroke="white" stroke-linecap="round" stroke-linejoin="round"/>
<line x1="26.6624" y1="16.1548" x2="21.6304" y2="14.1378" stroke="white" stroke-linecap="round" stroke-linejoin="round"/>
<path d="M20.9597 13.4878L17.2453 14.6824L16.0996 16.9604" stroke="white" stroke-linecap="round" stroke-linejoin="round"/>
<path d="M20.5671 21.1875C20.5671 21.1875 17.2111 22.3577 17.1423 25.2377" stroke="white" stroke-linecap="round" stroke-linejoin="round"/>
<line x1="15.1106" y1="22.2029" x2="15.1106" y2="25.0685" stroke="white" stroke-linecap="round" stroke-linejoin="round"/>
<path d="M12.9185 20.4497C12.9185 20.4497 11.3155 21.4167 10.8879 22.104V25.4604" stroke="white" stroke-linecap="round" stroke-linejoin="round"/>
<path d="M13.2258 19.0684C13.2258 18.4615 13.7179 17.9697 14.3244 17.9697C14.9313 17.9697 15.4234 18.4615 15.4234 19.0684C15.4234 19.6755 14.9313 20.167 14.3244 20.167C13.7179 20.167 13.2258 19.6755 13.2258 19.0684Z" stroke="white" stroke-linecap="round" stroke-linejoin="round"/>
</svg>
