<svg width="76" height="100" viewBox="0 0 76 100" fill="none" xmlns="http://www.w3.org/2000/svg">
<path d="M12.1731 87.1596V88.0976H15.8271V87.1596H12.1731ZM17.3251 94.5656V95.5176H19.9991V94.5656H17.3251ZM16.9751 85.9556V96.6936H17.8431V86.9076H19.5791V96.5816H20.4891V85.9556H16.9751ZM15.5051 87.1596V87.3836C15.3371 93.3336 15.1691 95.3636 14.8471 95.8116C14.7211 95.9936 14.6231 96.0216 14.4411 96.0216C14.2311 96.0216 13.8251 96.0216 13.3631 95.9796C13.5031 96.2456 13.6011 96.6516 13.6011 96.9316C14.0771 96.9736 14.5391 96.9596 14.8471 96.9316C15.1971 96.8756 15.4351 96.7636 15.6591 96.4136C16.0931 95.8256 16.2331 93.8516 16.4151 87.6496C16.4151 87.5096 16.4151 87.1596 16.4151 87.1596H15.5051ZM13.3911 84.3736C13.3771 89.8336 13.4051 94.2156 11.0531 96.5816C11.2911 96.7216 11.6271 97.0296 11.7811 97.2536C14.2731 94.6776 14.2731 90.0856 14.3011 84.3736H13.3911ZM9.06507 85.3536V86.2216H10.8291V92.8016H9.06507V93.6836H11.6691V85.3536H9.06507ZM8.54707 85.3536V95.0556H9.40107V85.3536H8.54707ZM32.8371 84.4156V97.1976H33.8591V84.4156H32.8371ZM28.2171 86.7116V87.6776H31.1571V86.7116H28.2171ZM33.3831 86.7116V87.6776H36.4771V86.7116H33.3831ZM33.4251 89.6236V90.5756H36.3091V89.6236H33.4251ZM33.3831 92.5776V93.5436H36.6171V92.5776H33.3831ZM28.3291 89.6236V90.5756H31.0311V89.6236H28.3291ZM27.6571 93.2496L28.0771 94.2016C29.2811 93.7676 30.7931 93.1936 32.2631 92.6196L32.1231 91.8216C30.4851 92.3676 28.7771 92.9416 27.6571 93.2496ZM30.5831 84.4436V90.6876C30.5831 92.9136 30.2751 95.1536 27.8671 96.5816C28.1191 96.7356 28.4831 97.0716 28.6511 97.2676C31.1991 95.7136 31.5771 93.2916 31.5771 90.6876V84.4436H30.5831ZM24.7311 85.6336V86.5996H26.8871V92.1156H24.7311V93.0816H27.8531V85.6336H24.7311ZM24.1991 85.6336V94.3416H25.1371V85.6336H24.1991ZM47.8731 90.0156C46.5851 93.5576 43.6451 95.3776 39.4031 96.2596C39.6271 96.5116 39.9631 96.9876 40.0751 97.2536C44.3731 96.1756 47.4531 94.2296 48.9931 90.3236L47.8731 90.0156ZM43.3091 87.6076C42.4551 88.7976 40.9711 89.9596 39.5991 90.6876C39.8651 90.8836 40.2711 91.3036 40.4531 91.5276C41.8111 90.6736 43.3791 89.3576 44.3731 88.0136L43.3091 87.6076ZM43.8691 90.0856L42.8751 90.3936C44.3731 94.1176 47.1871 96.3576 51.6531 97.2116C51.8071 96.9176 52.1151 96.4416 52.3531 96.2036C48.0131 95.4896 45.1711 93.4036 43.8691 90.0856ZM39.7111 86.1516V87.1736H52.0031V86.1516H39.7111ZM45.2831 84.3036V86.8096H46.3611V84.3036H45.2831ZM47.4951 88.1956C48.8391 89.1056 50.4631 90.4636 51.2191 91.3876L52.1291 90.6596C51.3311 89.7356 49.6791 88.4336 48.3631 87.5516L47.4951 88.1956ZM59.8291 90.0296L58.9191 90.3096C60.3331 94.0056 63.0211 96.3016 67.2771 97.1976C67.4171 96.9036 67.7111 96.4696 67.9491 96.2456C63.7771 95.4896 61.0611 93.3476 59.8291 90.0296ZM64.9951 89.5396V89.7356C63.9731 93.4036 61.0191 95.4756 57.6731 96.3156C57.8971 96.5256 58.1491 96.9316 58.2751 97.2116C61.8731 96.1756 64.9251 94.0336 66.1011 89.8056L65.3871 89.4836L65.1911 89.5396H64.9951ZM55.5031 86.6556V87.6776H67.5991V86.6556H55.5031ZM59.2551 89.5396L58.9611 90.5616H65.1071V89.5396H59.2551ZM59.2551 84.3176C59.1851 85.5916 59.0591 92.8156 55.0271 96.0216C55.3631 96.2176 55.7271 96.4836 55.9371 96.7496C59.9971 93.2636 60.2351 85.9276 60.3331 84.3176H59.2551Z" fill="#909090"/>
<ellipse cx="38.1158" cy="37.7822" rx="36.3709" ry="36.371" stroke="#909090" stroke-width="1.5"/>
<path d="M37.7701 29.1838H20.3489C19.2051 29.1838 18.2779 30.1111 18.2779 31.2548V34.3431C14.5367 34.5651 11.5759 37.6631 11.5759 41.4607C11.5759 45.2579 14.5367 48.356 18.2779 48.5779V48.8665C18.2779 50.6392 19.7148 52.076 21.4875 52.076H36.6317C38.4042 52.076 39.8413 50.6392 39.8413 48.8665V31.2548C39.8413 30.1111 38.9139 29.1838 37.7701 29.1838ZM13.4598 41.4607C13.4598 38.7035 15.5786 36.4479 18.2779 36.2262V46.6946C15.5786 46.4731 13.4598 44.2172 13.4598 41.4607Z" stroke="#909090" stroke-width="2" stroke-linecap="round" stroke-linejoin="round"/>
<path d="M43.7524 36.4692V49.6699C43.7524 50.9993 44.8295 52.0759 46.1582 52.0759H57.5096C58.8382 52.0759 59.9153 50.9993 59.9153 49.6699V49.4541C62.7195 49.2878 64.9388 46.9653 64.9388 44.1191C64.9388 41.2729 62.7195 38.9507 59.9153 38.7844V36.4692C59.9153 35.6125 59.2203 34.9172 58.363 34.9172H45.3048C44.4474 34.9172 43.7524 35.6125 43.7524 36.4692ZM59.9153 48.0425V40.196C61.9387 40.3621 63.5268 42.0525 63.5268 44.1191C63.5268 46.1855 61.9387 47.8767 59.9153 48.0425Z" stroke="#909090" stroke-width="2" stroke-linecap="round" stroke-linejoin="round"/>
<path d="M51.5617 28.4107C51.5991 28.2789 51.447 28.1758 51.3363 28.2554C50.7336 28.6905 49.6788 29.6552 50.4748 30.6369C51.2475 31.5906 51.3177 32.2226 51.1782 32.721C51.1385 32.862 51.3063 32.9683 51.4145 32.87C51.8192 32.4993 52.3191 31.9373 52.182 31.5181C51.978 30.8947 51.1598 29.8188 51.5617 28.4107Z" stroke="#909090" stroke-width="2" stroke-linecap="round" stroke-linejoin="round"/>
<path d="M27.5392 23.1723C27.5767 23.0413 27.4247 22.9374 27.3139 23.0176C26.7112 23.4529 25.6563 24.417 26.4524 25.3987C27.2251 26.3524 27.2954 26.9844 27.1559 27.4828C27.1163 27.6238 27.2837 27.7307 27.3922 27.6316C27.7966 27.2615 28.2966 26.6994 28.1596 26.2803C27.9556 25.6565 27.1373 24.5806 27.5392 23.1723Z" stroke="#909090" stroke-width="2" stroke-linecap="round" stroke-linejoin="round"/>
<path d="M54.8846 23.7107C54.9323 23.5435 54.7389 23.4116 54.5982 23.5135C53.8316 24.067 52.4906 25.2933 53.5027 26.5416C54.4852 27.7537 54.5745 28.5577 54.397 29.191C54.3467 29.3706 54.5599 29.5063 54.6975 29.3802C55.212 28.9099 55.8478 28.1949 55.6734 27.6621C55.4141 26.869 54.3736 25.5007 54.8846 23.7107Z" stroke="#909090" stroke-width="2" stroke-linecap="round" stroke-linejoin="round"/>
<path d="M30.3845 18.1171C30.4447 17.9068 30.2007 17.7402 30.0232 17.8682C29.0565 18.5664 27.3652 20.1126 28.6416 21.6875C29.8808 23.2164 29.9935 24.2304 29.7695 25.0292C29.7061 25.2559 29.9749 25.4266 30.1486 25.2678C30.7974 24.674 31.5992 23.7733 31.3794 23.1008C31.0522 22.1005 29.7401 20.3751 30.3845 18.1171Z" stroke="#909090" stroke-width="2" stroke-linecap="round" stroke-linejoin="round"/>
</svg>
