<svg width="42" height="54" viewBox="0 0 42 54" fill="none" xmlns="http://www.w3.org/2000/svg">
<path d="M6.32814 47.8445L6.41614 48.4125L11.3761 47.7885L11.2881 47.2205L6.32814 47.8445ZM9.45614 45.5485C9.92814 45.9485 10.4961 46.5165 10.7521 46.8765L11.2161 46.5565C10.9441 46.1885 10.3761 45.6445 9.89614 45.2605L9.45614 45.5485ZM6.24014 45.1805C5.71214 46.4445 4.83214 47.6765 3.90414 48.4525C4.01614 48.5885 4.19214 48.8925 4.25614 49.0365C5.25614 48.1405 6.20814 46.7645 6.80814 45.3645L6.24014 45.1805ZM5.33614 47.3085V52.4445H5.94414V46.7165V46.7085L5.33614 47.3085ZM8.12014 45.2125C8.29614 49.3005 8.82414 52.3245 10.6241 52.4525C11.0401 52.4685 11.3681 52.0605 11.5361 50.6685C11.4241 50.6205 11.1601 50.4685 11.0401 50.3485C10.9601 51.2845 10.8241 51.7565 10.6001 51.7405C9.39214 51.6285 8.84014 48.8045 8.72814 45.2125H8.12014ZM15.9601 45.7885V46.2445H20.1841V45.7885H15.9601ZM15.7761 47.7005V48.1565H20.3521V47.7005H15.7761ZM15.7521 50.6685V51.1325H20.3841V50.6685H15.7521ZM16.1681 46.7245V47.1725H20.0481V46.7245H16.1681ZM16.9361 45.1005V47.8845H17.4721V45.1005H16.9361ZM18.6641 45.1005V47.8845H19.2001V45.1005H18.6641ZM17.7841 47.9005V50.8125H18.3201V47.9005H17.7841ZM19.3521 48.6205V51.8285C19.3521 51.9325 19.3201 51.9565 19.2081 51.9645C19.1041 51.9725 18.7121 51.9725 18.2961 51.9565C18.3681 52.1005 18.4401 52.3085 18.4641 52.4445C19.0401 52.4445 19.4081 52.4525 19.6321 52.3645C19.8401 52.2765 19.9041 52.1245 19.9041 51.8285V48.6205H19.3521ZM16.2641 48.6205V52.4605H16.8081V49.0765H19.5921V48.6205H16.2641ZM16.5441 49.6525V50.0685H19.5761V49.6525H16.5441ZM13.7601 50.6045C13.6081 51.1885 13.3121 51.7565 12.9521 52.1405C13.0801 52.2205 13.3041 52.3805 13.4081 52.4605C13.7761 52.0365 14.1121 51.3885 14.3041 50.7325L13.7601 50.6045ZM14.7681 50.8045C15.0161 51.1965 15.2881 51.7325 15.4081 52.0685L15.8881 51.8365C15.7681 51.5085 15.4801 50.9885 15.2161 50.5965L14.7681 50.8045ZM13.8881 47.3965H15.0881V48.4285H13.8881V47.3965ZM13.8881 48.8925H15.0881V49.9405H13.8881V48.8925ZM13.8881 45.9005H15.0881V46.9245H13.8881V45.9005ZM13.3601 45.3965V50.4365H15.6241V45.3965H13.3601ZM22.7681 45.3885V45.9485H24.6241V45.3885H22.7681ZM22.7681 47.2605V47.8205H24.6401V47.2605H22.7681ZM25.8881 48.1325V48.6925H28.7921V48.1325H25.8881ZM22.7521 49.1805V49.7485H24.6241V49.1805H22.7521ZM22.5201 45.3885V48.2685C22.5201 49.4445 22.4801 51.0525 21.9281 52.1805C22.0721 52.2365 22.3121 52.3725 22.4241 52.4685C22.9921 51.2845 23.0721 49.5165 23.0721 48.2685V45.3885H22.5201ZM24.2881 45.3885V51.7325C24.2881 51.8445 24.2481 51.8765 24.1361 51.8845C24.0401 51.8925 23.7041 51.8925 23.3281 51.8845C23.4081 52.0365 23.4801 52.3085 23.5041 52.4525C24.0481 52.4605 24.3681 52.4445 24.5761 52.3485C24.7761 52.2445 24.8481 52.0605 24.8481 51.7405V45.3885H24.2881ZM28.3761 45.4125V46.9565C28.3761 47.0525 28.3441 47.0845 28.2161 47.0845C28.0881 47.0925 27.6641 47.0925 27.1841 47.0845C27.2561 47.2285 27.3441 47.4285 27.3761 47.5965C27.9841 47.5965 28.3841 47.5965 28.6321 47.5085C28.8881 47.4205 28.9521 47.2605 28.9521 46.9645V45.4125H28.3761ZM28.6321 48.1325V48.2445C28.2881 49.9965 27.2961 51.3645 26.1601 51.9645C26.2801 52.0685 26.4401 52.2765 26.5121 52.4125C27.7601 51.6685 28.7841 50.2845 29.1841 48.2365L28.8321 48.1165L28.7361 48.1325H28.6321ZM26.7841 48.4765L26.3041 48.6045C26.8081 50.3085 27.7361 51.7565 29.0321 52.4605C29.1201 52.3245 29.2881 52.1165 29.4241 52.0045C28.1681 51.3965 27.2401 50.0285 26.7841 48.4765ZM25.5521 45.4125V52.4525H26.1201V45.9725H28.5361V45.4125H25.5521ZM31.0801 45.4925V46.0125H33.8081V45.4925H31.0801ZM34.1681 49.5805V50.1005H37.6401V49.5805H34.1681ZM30.9921 47.9085V48.4445H34.0001V47.9085H30.9921ZM32.3921 48.1245V51.7565C32.3921 51.8445 32.3601 51.8685 32.2721 51.8765C32.1761 51.8765 31.8561 51.8765 31.5121 51.8685C31.5921 52.0285 31.6721 52.2765 31.6881 52.4285C32.1841 52.4285 32.4961 52.4205 32.6961 52.3325C32.9121 52.2285 32.9681 52.0685 32.9681 51.7565V48.1245H32.3921ZM37.4321 49.5805V49.6765C37.3121 51.0765 37.1681 51.6365 37.0001 51.7965C36.9281 51.8685 36.8561 51.8765 36.7281 51.8765C36.6001 51.8765 36.2801 51.8685 35.9361 51.8365C36.0241 51.9965 36.0801 52.2365 36.0961 52.3965C36.4561 52.4205 36.8081 52.4205 36.9921 52.4045C37.2081 52.3885 37.3521 52.3405 37.4961 52.1965C37.7281 51.9565 37.8721 51.3485 38.0241 49.8445C38.0401 49.7565 38.0481 49.5805 38.0481 49.5805H37.4321ZM35.6641 48.7885C35.5281 50.1725 35.2161 51.3805 33.5521 51.9965C33.6801 52.1005 33.8401 52.3165 33.9121 52.4605C35.7201 51.7565 36.1121 50.4045 36.2641 48.7885H35.6641ZM31.3601 46.8285C32.0401 47.1325 32.8561 47.6365 33.2561 48.0045L33.6561 47.5645C33.2401 47.1965 32.4081 46.7245 31.7361 46.4445L31.3601 46.8285ZM33.8401 47.9085V48.0125C33.7121 48.5885 33.5121 49.3005 33.3041 49.7405L33.7281 49.9485C33.9761 49.4525 34.2161 48.6845 34.3841 48.0125L34.0161 47.8845L33.9281 47.9085H33.8401ZM37.0481 46.1805C36.6161 47.4205 35.4961 48.1325 34.0401 48.5005C34.1601 48.6285 34.3441 48.8765 34.4161 49.0045C35.9281 48.5325 37.1281 47.7325 37.6641 46.2845L37.0481 46.1805ZM35.3361 45.0925C35.0161 45.8605 34.4321 46.5885 33.8001 47.0605C33.9521 47.1405 34.1921 47.3085 34.2961 47.4125C34.9121 46.9005 35.5281 46.1005 35.9041 45.2445L35.3361 45.0925ZM35.1921 46.3485L34.6961 46.5165C35.3361 47.7485 36.5361 48.6445 38.0001 49.0365C38.0801 48.8765 38.2561 48.6445 38.3841 48.5245C36.9601 48.2125 35.7681 47.4125 35.1921 46.3485ZM32.3201 48.0845C32.0561 49.0045 31.4881 50.0525 30.9121 50.5965C31.0161 50.7405 31.1601 50.9885 31.2241 51.1565C31.8481 50.5325 32.4241 49.2925 32.7281 48.2365L32.3201 48.0845ZM35.1601 45.9405L34.9121 46.4525H38.2161V45.9405H35.1601ZM33.6641 45.4925V45.6045C33.4001 46.0365 32.8401 46.6205 32.3281 46.9565C32.4481 47.0285 32.6321 47.1565 32.7361 47.2525C33.2881 46.8845 33.9121 46.2765 34.2801 45.7165L33.8881 45.4685L33.7921 45.4925H33.6641Z" fill="white"/>
<circle cx="21.1301" cy="21.0461" r="19.3859" stroke="white" stroke-width="1.5"/>
<path d="M17.3921 18.6241C17.3921 18.6241 18.1777 9.92578 21.0775 9.92578" stroke="white" stroke-linecap="round" stroke-linejoin="round"/>
<path d="M24.7626 18.6241C24.7626 18.6241 23.977 9.92578 21.0771 9.92578" stroke="white" stroke-linecap="round" stroke-linejoin="round"/>
<path d="M13.6523 14.6953H28.5298V31.063H13.6523V14.8578" stroke="white" stroke-linecap="round" stroke-linejoin="round"/>
</svg>
