<svg width="42" height="54" viewBox="0 0 42 54" fill="none" xmlns="http://www.w3.org/2000/svg">
<path d="M4.11416 46.4595V47.0435H11.1222V46.4595H4.11416ZM6.59416 48.9955V49.5555H10.8102V48.9955H6.59416ZM6.28216 51.8275V52.3955H11.1222V51.8275H6.28216ZM8.40216 47.4515V52.1315H9.00216V47.4515H8.40216ZM6.74616 45.2195C6.29816 46.8675 5.36216 48.6435 3.92216 49.6595C4.01816 49.7955 4.17016 50.0515 4.23416 50.2115C5.82616 49.0675 6.80216 47.2035 7.36216 45.3715L6.74616 45.2195ZM5.16216 48.5155V52.5555H5.76216V48.5155H5.16216ZM17.6582 45.2195V50.7955H18.2262V45.2195H17.6582ZM15.1382 48.5235L15.3702 49.0515L19.6742 47.2195L19.4502 46.7075L15.1382 48.5235ZM16.0022 45.9715V51.3155C16.0022 52.1875 16.2742 52.4035 17.1942 52.4035C17.3942 52.4035 18.9462 52.4035 19.1622 52.4035C20.0022 52.4035 20.1942 52.0515 20.2902 50.9475C20.1222 50.9155 19.8902 50.8195 19.7462 50.7235C19.6902 51.6435 19.6102 51.8595 19.1382 51.8595C18.8182 51.8595 17.4742 51.8595 17.2102 51.8595C16.6742 51.8595 16.5782 51.7635 16.5782 51.3235V45.9715H16.0022ZM19.3462 46.7875C19.3462 48.3795 19.3382 49.5155 19.2902 49.7235C19.2502 49.9075 19.1702 49.9395 19.0502 49.9395C18.9622 49.9395 18.6982 49.9395 18.5142 49.9315C18.5862 50.0675 18.6342 50.2915 18.6582 50.4515C18.8742 50.4515 19.1942 50.4515 19.4102 50.3955C19.6422 50.3395 19.7942 50.1875 19.8422 49.8675C19.8982 49.5555 19.9222 48.3555 19.9222 46.8515L19.9462 46.7395L19.5222 46.5795L19.4182 46.6675L19.2742 46.7875H19.3462ZM12.9062 47.1475V47.7155H15.4502V47.1475H12.9062ZM13.9382 45.3155V50.5075H14.5062V45.3155H13.9382ZM12.8342 50.7155L13.0742 51.3075C13.7862 51.0035 14.6902 50.5955 15.5462 50.1875L15.4182 49.6515C14.4662 50.0595 13.4822 50.4755 12.8342 50.7155ZM25.2422 48.6995V49.1395H29.1782V48.6995H25.2422ZM25.0982 51.9795V52.4355H29.2342V51.9795H25.0982ZM26.4342 45.2275V46.2275H26.8902V45.2275H26.4342ZM27.4582 45.2275V46.2275H27.9142V45.2275H27.4582ZM26.1382 49.9155H28.2342V50.6195H26.1382V49.9155ZM25.6422 49.5235V51.0115H28.7542V49.5235H25.6422ZM25.9542 47.3235H28.4182V47.8755H25.9542V47.3235ZM25.9542 46.3795H28.4182V46.9235H25.9542V46.3795ZM25.4822 45.9635V48.2995H28.9062V45.9635H25.4822ZM26.0182 51.1715C26.1782 51.4595 26.3062 51.8515 26.3462 52.1155L26.8102 51.9475C26.7622 51.6835 26.6262 51.3075 26.4502 51.0275L26.0182 51.1715ZM27.8742 51.0195C27.7942 51.2835 27.6342 51.6915 27.5062 51.9635L27.8982 52.0995C28.0342 51.8515 28.2182 51.4915 28.3862 51.1635L27.8742 51.0195ZM22.7702 49.7075V50.1395H24.5542V49.7075H22.7702ZM22.7702 50.7315V51.1715H24.5542V50.7315H22.7702ZM22.4902 48.6995V52.5875H23.0022V49.1395H24.5302V48.6995H22.4902ZM24.2102 48.6995V52.0115C24.2102 52.0915 24.1782 52.1155 24.0982 52.1155C24.0262 52.1235 23.7702 52.1235 23.4902 52.1155C23.5542 52.2435 23.6262 52.4435 23.6502 52.5795C24.0742 52.5795 24.3382 52.5795 24.5062 52.4915C24.6822 52.4115 24.7302 52.2755 24.7302 52.0195V48.6995H24.2102ZM22.4822 45.5075V47.9395H22.9462V45.9635H24.2662V47.9395H24.7382V45.5075H22.4822ZM22.0262 47.7315V48.8835H22.4822V48.1715H24.7382V48.8835H25.2102V47.7315H22.0262ZM23.3622 46.4835V47.8995H23.7462V46.8675H24.5702V46.4835H23.3622ZM26.5142 46.1235V48.0915H26.8902V46.1235H26.5142ZM27.4582 46.1235V48.0915H27.8342V46.1235H27.4582ZM34.9062 47.1475V47.6115H37.1142V47.1475H34.9062ZM34.6342 48.5315H35.3702V49.5555H34.6342V48.5315ZM34.2102 48.1155V49.9715H35.8182V48.1155H34.2102ZM36.6502 48.5315H37.4342V49.5555H36.6502V48.5315ZM36.2262 48.1155V49.9715H37.8902V48.1155H36.2262ZM34.8102 50.1875C34.6902 51.0995 34.3622 51.8115 33.7302 52.2515C33.8502 52.3315 34.0422 52.5155 34.1142 52.6115C34.7942 52.0915 35.1782 51.2915 35.3302 50.2195L34.8102 50.1875ZM34.7222 51.2195C35.0502 51.5235 35.4502 51.9475 35.6422 52.2195L35.9862 51.8675C35.7942 51.6035 35.3782 51.2035 35.0582 50.9155L34.7222 51.2195ZM36.8102 50.1795C36.6822 51.0835 36.3382 51.7875 35.7062 52.2275C35.8342 52.3075 36.0262 52.4995 36.0982 52.5875C36.7782 52.0675 37.1862 51.2755 37.3382 50.2115L36.8102 50.1795ZM36.6902 51.2515C37.1062 51.6595 37.6022 52.2275 37.8342 52.5795L38.2262 52.2755C37.9862 51.9315 37.4822 51.3795 37.0742 50.9875L36.6902 51.2515ZM35.9622 45.7875C36.4182 46.5235 37.2182 47.3155 37.9782 47.7795C38.0502 47.6275 38.1782 47.4035 38.2902 47.2595C37.5302 46.8595 36.7222 46.0675 36.2182 45.2515H35.6662C35.2982 46.0115 34.5222 46.8595 33.7062 47.3315C33.8102 47.4595 33.9382 47.6755 34.0022 47.8195C34.8102 47.3155 35.5622 46.4995 35.9622 45.7875ZM31.4662 46.7715V47.2435H33.6902V46.7715H31.4662ZM31.4662 47.9795V48.4435H33.7062V47.9795H31.4662ZM31.1622 49.1955V49.6755H33.6102V49.1955H31.1622ZM32.3702 45.8195V49.4435H32.8502V45.8195H32.3702ZM32.6102 50.1155C32.8022 50.4435 32.9942 50.8755 33.0742 51.1635L33.3622 51.0435C33.2822 50.7635 33.0822 50.3315 32.8822 50.0195L32.6102 50.1155ZM32.1222 50.2275C32.2742 50.6355 32.4022 51.1715 32.4342 51.5235L32.7462 51.4515C32.7142 51.1075 32.5702 50.5715 32.4102 50.1635L32.1222 50.2275ZM31.6342 50.3075C31.7062 50.7795 31.7462 51.3715 31.7302 51.7635L32.0582 51.7235C32.0662 51.3315 32.0262 50.7395 31.9462 50.2675L31.6342 50.3075ZM31.1062 50.1635C31.0822 50.8355 31.0022 51.5475 30.7302 51.9475L31.0662 52.1395C31.3622 51.6995 31.4422 50.9395 31.4742 50.2275L31.1062 50.1635ZM31.1622 45.5475V49.4595H31.6582V46.0355H33.8422V45.5475H31.1622ZM33.4182 49.1955V49.2835C33.3462 51.2035 33.2742 51.8915 33.1382 52.0435C33.0822 52.1235 33.0262 52.1395 32.9302 52.1395C32.8262 52.1395 32.5942 52.1395 32.3302 52.1075C32.3942 52.2355 32.4422 52.4435 32.4582 52.5795C32.7222 52.5955 32.9942 52.5955 33.1462 52.5795C33.3302 52.5635 33.4502 52.5155 33.5622 52.3635C33.7542 52.1315 33.8262 51.4275 33.9062 49.4275C33.9142 49.3475 33.9142 49.1955 33.9142 49.1955H33.4182Z" fill="white"/>
<circle cx="21.0041" cy="20.3859" r="19.3859" stroke="white" stroke-width="1.5"/>
<path d="M29.3414 22.7264L30.8151 24.6185C31.4914 25.485 32.1674 26.3515 32.8432 27.2184C33.0569 27.4931 33.0374 27.6659 32.7655 27.8779C30.042 30.0013 27.318 32.1258 24.593 34.2518C23.9922 34.7202 23.392 35.1887 22.7921 35.6578C22.4211 35.948 22.2959 35.9376 22.0008 35.5596C19.8618 32.8186 17.7235 30.0768 15.5857 27.3338L7.14432 16.5067C6.89267 16.1837 6.90793 16.0376 7.23379 15.784C10.5639 13.1853 13.8947 10.587 17.226 7.98961C17.5171 7.76219 17.6837 7.78367 17.9164 8.08079C18.787 9.19346 19.6568 10.3071 20.5257 11.4216C20.5968 11.5128 20.671 11.6015 20.7482 11.6988C22.6817 7.90037 27.3286 6.38829 31.1273 8.32188C34.926 10.2555 36.438 14.9023 34.5045 18.701C33.4659 20.7414 31.5752 22.2152 29.3431 22.7247L29.3414 22.7264ZM18.9381 23.4131C18.9289 23.2934 18.9222 23.2091 18.9147 23.1234C18.9075 23.0375 18.8958 22.9519 18.894 22.8656C18.8579 21.3066 19.4546 19.7992 20.5478 18.6872C20.6459 18.6113 20.6703 18.4731 20.6042 18.3684C19.7871 16.5757 19.6992 14.5357 20.3593 12.6797C20.42 12.5354 20.39 12.369 20.2826 12.2551C19.6498 11.4551 19.0251 10.6478 18.3972 9.8441C18.293 9.71092 18.1888 9.57786 18.084 9.44383C17.7552 9.02427 17.1487 8.94981 16.7283 9.27769L8.58078 15.63C8.15964 15.9581 8.08444 16.566 8.41293 16.9869L13.1686 23.0847C13.3107 22.9972 13.4326 22.9121 13.5643 22.8435C13.7262 22.7372 13.9433 22.7825 14.0493 22.9442C14.0527 22.9492 14.0556 22.9542 14.0587 22.9592C14.1588 23.1157 14.1134 23.3236 13.9571 23.4239C13.9527 23.4266 13.948 23.4295 13.9435 23.4321C13.8437 23.5047 13.7401 23.573 13.6164 23.6582L19.0765 30.6571C19.4536 29.7942 19.6759 28.8716 19.7331 27.9317C19.7898 26.7203 19.5871 25.5106 19.1384 24.3839C19.1089 24.3171 19.0566 24.263 18.9907 24.2313C18.5994 24.0476 18.203 23.8797 17.8098 23.7044C17.5716 23.5986 17.4729 23.417 17.547 23.2263C17.6279 23.018 17.8257 22.9488 18.0769 23.0498C18.3537 23.1606 18.6244 23.2803 18.9381 23.4131ZM29.7076 24.3502C29.6219 24.4112 29.554 24.463 29.4847 24.5119C29.2084 24.7055 28.9335 24.9027 28.6541 25.0893C28.5287 25.2004 28.3347 25.1846 28.2297 25.051H28.2296C28.1604 24.9277 28.1345 24.785 28.1561 24.6454C28.1653 24.569 28.2835 24.4958 28.3643 24.4371C28.6621 24.2208 28.9647 24.013 29.2752 23.7947C29.0418 23.4951 28.8324 23.2113 28.6015 22.944C28.5321 22.8887 28.4449 22.8609 28.3564 22.8661C27.8474 22.858 27.3334 22.9065 26.8305 22.8514C24.5254 22.6356 22.4466 21.3744 21.1903 19.4298C21.1402 19.3562 21.0874 19.284 21.028 19.2003C20.5127 19.7239 20.1187 20.3542 19.8735 21.0469C19.4835 22.2038 19.5117 23.461 19.953 24.5993C20.7317 26.7362 20.6151 29.0968 19.6297 31.1463C19.5634 31.2878 19.6223 31.3639 19.6952 31.4569C20.3139 32.249 20.9319 33.0411 21.5493 33.833C21.6567 33.9708 21.7643 34.1085 21.8723 34.2467C22.2011 34.6671 22.8081 34.7419 23.2289 34.4138L31.3738 28.0616C31.7946 27.7335 31.87 27.1262 31.5419 26.7052L29.7076 24.3502ZM27.6287 22.1952C31.493 22.1949 34.6255 19.062 34.6251 15.1976C34.6247 11.3334 31.4918 8.20103 27.6273 8.2014C23.7719 8.20176 20.6433 11.321 20.6312 15.1763C20.6325 19.0443 23.7614 22.1827 27.6293 22.1959L27.6287 22.1952Z" fill="white"/>
<path d="M17.8492 18.1969C17.8492 18.4321 17.8559 18.6681 17.8492 18.9037C17.8382 19.218 17.6862 19.3662 17.3849 19.3167C16.0547 19.1688 14.7762 18.7167 13.6484 17.9961C12.7628 17.4436 12.334 16.3837 12.5862 15.3707C12.7686 14.3876 13.5439 13.6222 14.5292 13.4524C15.725 13.2099 16.9207 13.8679 17.3555 15.0082C17.6615 15.8417 17.8285 16.72 17.8498 17.6077C17.8632 17.8031 17.8498 18.0004 17.8498 18.1969H17.8492ZM17.1662 18.5698C17.1424 18.0653 17.135 17.5897 17.094 17.1129C17.0629 16.4533 16.9157 15.8041 16.6596 15.1957C16.387 14.5267 15.7277 14.0974 15.0058 14.1185C14.2594 14.1122 13.5908 14.5794 13.3403 15.2825C13.039 16.1048 13.3669 17.0252 14.1208 17.4717C15.0562 18.0293 16.0902 18.402 17.1662 18.5694V18.5698Z" fill="white"/>
<path d="M16.8681 22.8683C16.8894 23.0614 16.7501 23.2351 16.5572 23.2562C16.5251 23.2599 16.4927 23.2588 16.4607 23.2537L15.1347 23.1134C14.9019 23.0881 14.7752 22.9646 14.774 22.7611C14.7633 22.5814 14.9003 22.4271 15.0798 22.4164C15.0988 22.4157 15.1177 22.4159 15.1366 22.4182C15.6265 22.4506 16.1166 22.5089 16.5999 22.5743C16.7508 22.5903 16.8659 22.7164 16.8681 22.8683Z" fill="white"/>
<path d="M24.3076 26.3423C23.8603 26.2334 23.4101 26.1354 22.9667 26.0116C22.7817 25.9743 22.6618 25.794 22.6992 25.609C22.703 25.5906 22.7081 25.5721 22.7149 25.5547C22.7892 25.3728 22.9935 25.2816 23.1787 25.3476C23.5996 25.4339 24.0209 25.516 24.4424 25.5969C24.6389 25.6135 24.7875 25.7826 24.7787 25.9798C24.7627 26.1954 24.5991 26.3092 24.3076 26.3423Z" fill="white"/>
<path d="M25.874 26.2617C25.6917 26.2401 25.5425 26.106 25.5015 25.9272C25.4554 25.7586 25.555 25.5844 25.7236 25.5383L25.7264 25.5378C26.188 25.3913 26.6519 25.2512 27.118 25.1206C27.2815 25.0644 27.4594 25.1516 27.5154 25.3154C27.5164 25.3177 27.5171 25.3203 27.518 25.3227C27.5992 25.4649 27.5497 25.6463 27.4076 25.7272C27.3969 25.7331 27.386 25.7387 27.3748 25.7434C26.8803 25.9326 26.3737 26.0913 25.874 26.2617Z" fill="white"/>
<path d="M21.703 25.5087C21.6387 25.4922 21.5755 25.4716 21.5136 25.4473C21.1316 25.2674 20.7492 25.0872 20.3701 24.9004C20.125 24.7779 20.0382 24.586 20.1324 24.3927C20.2268 24.1991 20.4282 24.1476 20.6782 24.2669C21.0751 24.4505 21.4702 24.6417 21.8629 24.8373C22.0252 24.8993 22.1114 25.0767 22.0593 25.2427C22.02 25.4055 21.8703 25.5171 21.703 25.5087Z" fill="white"/>
<path d="M27.6194 21.4695C24.1594 21.468 21.3555 18.6619 21.3569 15.2018C21.3583 11.7418 24.1644 8.93799 27.6244 8.93945C31.0846 8.9408 33.8884 11.7468 33.887 15.2069C33.8869 15.2148 33.8869 15.2229 33.8869 15.2307C33.8525 18.6732 31.0619 21.4508 27.6194 21.4695ZM23.5442 18.958C23.6936 18.7974 23.8224 18.6488 23.9626 18.5122C24.0771 18.3519 24.2997 18.3149 24.46 18.4293C24.6202 18.5439 24.6571 18.7666 24.5425 18.9268C24.5204 18.9578 24.4933 18.9851 24.4625 19.0078C24.3239 19.146 24.172 19.2703 24.0134 19.4136C24.9351 20.2036 26.0913 20.668 27.3033 20.7344V20.2798C27.303 20.1857 27.3077 20.0917 27.3181 19.998C27.3243 19.8226 27.4717 19.6855 27.6472 19.6918H27.6482C27.8198 19.671 27.9756 19.7936 27.9963 19.9653C27.9977 19.9762 27.9985 19.9872 27.9986 19.998C28.0176 20.2365 28.0035 20.4778 28.0035 20.7332C29.2566 20.6445 30.4429 20.1344 31.3694 19.2859C31.2181 19.1469 31.0772 19.0234 30.9449 18.8925C30.7126 18.6641 30.6815 18.4639 30.8426 18.3002C31.0036 18.1366 31.2101 18.1593 31.452 18.4008C31.5776 18.528 31.6971 18.6597 31.841 18.808C32.6458 17.8652 33.1126 16.6807 33.1678 15.442C32.9081 15.442 32.6741 15.4475 32.4401 15.442C32.1816 15.4347 32.0248 15.2964 32.0242 15.0876C32.0237 14.8787 32.1792 14.7415 32.4376 14.7371C32.6711 14.7333 32.9039 14.7371 33.1556 14.7371C33.0593 13.5679 32.5932 12.4595 31.8251 11.5726C31.6187 11.8029 31.444 12.0175 31.2475 12.2073C31.1049 12.3317 30.8886 12.3165 30.7644 12.1741C30.6704 12.0659 30.6534 11.911 30.7219 11.785C30.772 11.7051 30.834 11.6328 30.9056 11.5709C31.0656 11.4244 31.2322 11.2854 31.4073 11.1343C30.4728 10.2725 29.2732 9.75391 28.0054 9.66406C28.0215 9.94617 28.0172 10.2291 27.9926 10.5107C27.954 10.6462 27.8507 10.7542 27.7169 10.7982C27.5764 10.7877 27.446 10.7216 27.3542 10.6149C27.2973 10.5577 27.3108 10.4218 27.3076 10.3214C27.3015 10.1045 27.3076 9.88818 27.3076 9.65918C26.0981 9.72888 24.9447 10.1936 24.0245 10.9817C24.2119 11.1654 24.384 11.3253 24.545 11.4967C24.6063 11.5624 24.6909 11.6584 24.6811 11.7294C24.6666 11.8624 24.61 11.9875 24.5195 12.0859C24.3921 12.1901 24.2045 12.1709 24.1005 12.0437C24.0986 12.0413 24.0969 12.0388 24.0949 12.0364C23.9062 11.8525 23.7304 11.6554 23.5392 11.4524C22.7106 12.3589 22.2039 13.5129 22.0974 14.7366H22.7461C23.0206 14.7395 23.1841 14.8743 23.1822 15.0886C23.1804 15.303 23.0162 15.4382 22.7413 15.442H22.0876C22.1459 16.7484 22.6603 17.9932 23.5411 18.9597L23.5442 18.958Z" fill="white"/>
<path d="M30.2525 13.0641C30.2263 13.1396 30.1967 13.2137 30.1631 13.2863C29.6938 14.2009 29.2271 15.1173 28.7475 16.0263C28.6783 16.1549 28.5739 16.261 28.4466 16.3325C27.5309 16.8153 26.6092 17.2821 25.6903 17.758C25.5066 17.8535 25.3339 17.8968 25.1747 17.7341C25.0152 17.571 25.0691 17.408 25.1587 17.2356C25.6376 16.3088 26.1111 15.3785 26.5938 14.4535C26.6457 14.3491 26.7265 14.2617 26.8264 14.202C27.7785 13.7036 28.7336 13.2111 29.6922 12.7248C29.8604 12.6153 30.086 12.6632 30.1952 12.8315C30.24 12.9007 30.2602 12.9825 30.2525 13.0641ZM29.0354 13.9279L28.9949 13.8849C28.5662 14.1056 28.1433 14.3486 27.7006 14.539C27.359 14.6775 27.0873 14.9474 26.9466 15.2881C26.7482 15.7352 26.5076 16.1642 26.282 16.6058C26.3212 16.6148 26.3383 16.6255 26.3481 16.6211C26.9134 16.3322 27.4779 16.0422 28.0418 15.7513C28.0893 15.7256 28.1282 15.6865 28.154 15.6391C28.4479 15.07 28.74 14.4986 29.0329 13.9279H29.0354Z" fill="white"/>
</svg>
