<svg width="34" height="35" viewBox="0 0 34 35" fill="none" xmlns="http://www.w3.org/2000/svg">
<ellipse cx="17.0846" cy="17.4018" rx="16.7953" ry="16.7953" fill="#5BD0FA"/>
<path d="M16.925 13.4314H8.88025C8.35211 13.4314 7.92395 13.8594 7.92395 14.3877V15.8137C6.19629 15.9164 4.8291 17.3468 4.8291 19.1006C4.8291 20.854 6.19629 22.2845 7.92395 22.3872V22.5203C7.92395 23.3389 8.58746 24.0024 9.40613 24.0024H16.3993C17.2178 24.0024 17.8815 23.3389 17.8815 22.5203V14.3877C17.8815 13.8594 17.4532 13.4314 16.925 13.4314ZM5.69904 19.1006C5.69904 17.8273 6.67749 16.7858 7.92395 16.6835V21.5175C6.67749 21.415 5.69904 20.3734 5.69904 19.1006Z" stroke="white" stroke-linecap="round" stroke-linejoin="round"/>
<path d="M19.6875 16.7955V22.8914C19.6875 23.5051 20.1848 24.0023 20.7984 24.0023H26.0402C26.6537 24.0023 27.1512 23.5051 27.1512 22.8914V22.7916C28.4461 22.7147 29.4709 21.6425 29.4709 20.3281C29.4709 19.0138 28.4461 17.9414 27.1512 17.8646V16.7955C27.1512 16.4 26.8302 16.0789 26.4343 16.0789H20.4043C20.0084 16.0789 19.6875 16.4 19.6875 16.7955ZM27.1512 22.1398V18.5166C28.0855 18.5931 28.8188 19.3738 28.8188 20.3281C28.8188 21.2822 28.0855 22.0632 27.1512 22.1398Z" stroke="white" stroke-linecap="round" stroke-linejoin="round"/>
<path d="M23.2937 13.074C23.311 13.0132 23.2407 12.9656 23.1896 13.0024C22.9113 13.2032 22.4242 13.6487 22.7918 14.1021C23.1486 14.5425 23.181 14.8343 23.1166 15.0645C23.0983 15.1297 23.1757 15.1786 23.2257 15.1332C23.4126 14.9622 23.6434 14.7026 23.5801 14.509C23.4859 14.2211 23.1081 13.7243 23.2937 13.074Z" stroke="white" stroke-linecap="round" stroke-linejoin="round"/>
<path d="M12.2006 10.6551C12.218 10.5947 12.1478 10.5467 12.0966 10.5838C11.8183 10.7848 11.3312 11.2301 11.6988 11.6832C12.0556 12.1237 12.088 12.4154 12.0236 12.6457C12.0053 12.7108 12.0827 12.7601 12.1328 12.7144C12.3195 12.5435 12.5504 12.2839 12.4871 12.0903C12.3929 11.8022 12.0151 11.3055 12.2006 10.6551Z" stroke="white" stroke-linecap="round" stroke-linejoin="round"/>
<path d="M24.8281 10.9039C24.8501 10.8269 24.7608 10.7658 24.6958 10.8128C24.3418 11.0686 23.7226 11.6347 24.19 12.2111C24.6437 12.771 24.6849 13.1422 24.6029 13.4347C24.5797 13.5174 24.6782 13.5802 24.7417 13.5221C24.9793 13.3048 25.2729 12.9747 25.1923 12.7285C25.0726 12.3623 24.5921 11.7306 24.8281 10.9039Z" stroke="white" stroke-linecap="round" stroke-linejoin="round"/>
<path d="M13.5145 8.32093C13.5423 8.22377 13.4296 8.14686 13.3476 8.20594C12.9013 8.52833 12.1202 9.24232 12.7096 9.96962C13.2819 10.6755 13.3339 11.1439 13.2305 11.5127C13.2012 11.6174 13.3253 11.6962 13.4055 11.6229C13.7052 11.3486 14.0754 10.9326 13.9739 10.6222C13.8228 10.1604 13.2169 9.36366 13.5145 8.32093Z" stroke="white" stroke-linecap="round" stroke-linejoin="round"/>
</svg>
