<svg width="41" height="55" viewBox="0 0 41 55" fill="none" xmlns="http://www.w3.org/2000/svg">
<path d="M8.29376 45.4577V46.5537H8.90176V45.4577H8.29376ZM6.39776 46.3137V46.8337H10.8458V46.3137H6.39776ZM6.07776 48.1857V48.7137H11.0698V48.1857H6.07776ZM7.14976 46.9057C7.31776 47.3457 7.46176 47.9217 7.48576 48.2737L8.02976 48.1377C7.99776 47.7937 7.84576 47.2337 7.66976 46.8017L7.14976 46.9057ZM9.52576 46.7857C9.42976 47.1857 9.23776 47.7857 9.07776 48.1617L9.58976 48.2497C9.75776 47.8897 9.94976 47.3457 10.1178 46.8737L9.52576 46.7857ZM6.11776 49.5057V50.0257H11.0378V49.5057H6.11776ZM7.94976 48.5697C7.59776 49.4417 7.04576 50.6257 6.64576 51.3377L7.16576 51.5137C7.57376 50.7777 8.14176 49.6097 8.54976 48.6897L7.94976 48.5697ZM7.05376 51.2337C8.27776 51.6017 9.77376 52.2817 10.5098 52.8257L10.8938 52.3697C10.1178 51.8097 8.61376 51.1697 7.40576 50.8257L7.05376 51.2337ZM9.52576 49.8417C9.18176 51.4017 8.22176 52.0817 5.91776 52.3137C6.01376 52.4417 6.11776 52.6497 6.15776 52.8177C8.62976 52.4897 9.72576 51.7137 10.1098 49.9297L9.52576 49.8417ZM3.62176 49.7137L3.75776 50.3057C4.46976 50.0897 5.38976 49.8017 6.26176 49.5297L6.18976 48.9937C5.24576 49.2657 4.26976 49.5537 3.62176 49.7137ZM3.75776 47.0737V47.6337H6.19776V47.0737H3.75776ZM4.84576 45.4657V52.0897C4.84576 52.2097 4.79776 52.2417 4.69376 52.2417C4.59776 52.2497 4.26176 52.2497 3.90176 52.2337C3.98176 52.4017 4.06176 52.6657 4.08576 52.8177C4.60576 52.8177 4.93376 52.8017 5.14176 52.6977C5.34976 52.6017 5.42176 52.4337 5.42176 52.0897V45.4657H4.84576ZM15.1498 49.5537V50.0417H20.0058V49.5537H15.1498ZM15.7818 50.8177C16.1978 51.0737 16.7258 51.4577 16.9818 51.7137L17.3178 51.2977C17.0538 51.0497 16.5178 50.6897 16.1018 50.4497L15.7818 50.8177ZM18.3738 49.0817C18.6698 49.2497 19.0298 49.5137 19.2058 49.6897L19.5178 49.3777C19.3338 49.1937 18.9658 48.9537 18.6698 48.7937L18.3738 49.0817ZM15.7418 49.7777C15.6778 50.8257 15.4858 51.8497 14.6938 52.4097C14.8218 52.4977 14.9818 52.6817 15.0618 52.8017C15.9578 52.1457 16.1978 51.0177 16.2858 49.7777H15.7418ZM17.1818 45.4657C17.1978 49.5537 17.7018 52.8257 19.3098 52.8337C19.8458 52.8337 20.0218 52.5697 20.1258 51.6657C19.9978 51.6177 19.8138 51.5137 19.7018 51.4017C19.6618 52.1297 19.5818 52.3137 19.3498 52.3137C18.2618 52.3137 17.6778 49.4497 17.7178 45.4657H17.1818ZM18.9738 50.1697C18.5258 51.1617 17.6138 51.9697 16.4138 52.4337C16.5258 52.5297 16.6778 52.7137 16.7498 52.8177C17.9818 52.3057 18.9658 51.4657 19.4858 50.3617L18.9738 50.1697ZM17.7578 46.8577C18.1018 47.1217 18.5018 47.5057 18.6858 47.7697L18.9418 47.3937C18.7578 47.1377 18.3578 46.7697 18.0058 46.5297L17.7578 46.8577ZM19.2538 47.8257C19.4618 48.2017 19.6618 48.7057 19.7338 49.0177L20.1258 48.8337C20.0618 48.5297 19.8458 48.0497 19.6218 47.6817L19.2538 47.8257ZM17.8618 48.3857L17.9498 48.8497C18.4778 48.8017 19.0858 48.7457 19.7258 48.6817V48.2657C19.0218 48.3137 18.3578 48.3537 17.8618 48.3857ZM18.6858 45.5377C18.5498 45.9297 18.2858 46.5057 18.0858 46.8577L18.4298 47.0177C18.6538 46.6897 18.9258 46.1697 19.1498 45.7217L18.6858 45.5377ZM19.3418 46.3377C19.0378 46.9857 18.4938 47.8977 18.0698 48.4497L18.4058 48.6417C18.8378 48.0977 19.3818 47.2417 19.7898 46.5537L19.3418 46.3377ZM15.0458 46.8577C15.3898 47.1217 15.7898 47.5057 15.9738 47.7697L16.2298 47.3937C16.0538 47.1377 15.6458 46.7697 15.3018 46.5297L15.0458 46.8577ZM16.4378 47.8737C16.6298 48.2577 16.8058 48.7537 16.8618 49.0657L17.2538 48.8977C17.2058 48.5937 17.0138 48.1057 16.8058 47.7377L16.4378 47.8737ZM15.0778 48.4737L15.1658 48.9457C15.6938 48.8977 16.3098 48.8417 16.9498 48.7777V48.3457C16.2378 48.4017 15.5818 48.4497 15.0778 48.4737ZM15.9818 45.5377C15.8378 45.9297 15.5818 46.5137 15.3818 46.8737L15.7258 47.0257C15.9418 46.6977 16.2138 46.1697 16.4458 45.7297L15.9818 45.5377ZM16.6378 46.3377C16.3178 47.0097 15.7498 47.9537 15.3018 48.5217L15.6458 48.7057C16.1018 48.1537 16.6618 47.2657 17.0778 46.5537L16.6378 46.3377ZM12.7738 47.1937V47.7537H15.1978V47.1937H12.7738ZM13.7898 45.4577V52.8097H14.3338V45.4577H13.7898ZM13.7658 47.5297C13.5738 48.6657 13.0938 50.0657 12.6058 50.7857C12.7018 50.9137 12.8378 51.1377 12.9018 51.2817C13.4298 50.4817 13.9018 48.9057 14.1258 47.6417L13.7658 47.5297ZM14.2938 48.0577L14.0458 48.2897C14.2378 48.6017 14.7418 49.5457 14.9018 49.9457L15.2058 49.5057C15.0778 49.2737 14.4538 48.2737 14.2938 48.0577ZM23.9098 48.2097L23.9978 48.7777L28.9578 48.1537L28.8698 47.5857L23.9098 48.2097ZM27.0378 45.9137C27.5098 46.3137 28.0778 46.8817 28.3338 47.2417L28.7978 46.9217C28.5258 46.5537 27.9578 46.0097 27.4778 45.6257L27.0378 45.9137ZM23.8218 45.5457C23.2938 46.8097 22.4138 48.0417 21.4858 48.8177C21.5978 48.9537 21.7738 49.2577 21.8378 49.4017C22.8378 48.5057 23.7898 47.1297 24.3898 45.7297L23.8218 45.5457ZM22.9178 47.6737V52.8097H23.5258V47.0817V47.0737L22.9178 47.6737ZM25.7018 45.5777C25.8778 49.6657 26.4058 52.6897 28.2058 52.8177C28.6218 52.8337 28.9498 52.4257 29.1178 51.0337C29.0058 50.9857 28.7418 50.8337 28.6218 50.7137C28.5418 51.6497 28.4058 52.1217 28.1818 52.1057C26.9738 51.9937 26.4218 49.1697 26.3098 45.5777H25.7018ZM30.8298 46.0257V46.5137H33.9498V46.0257H30.8298ZM32.1338 49.0897V49.4577H36.7978V49.0897H32.1338ZM32.1578 49.9137V50.2897H36.8138V49.9137H32.1578ZM32.1178 50.7457V51.1857H37.2778V50.7457H32.1178ZM33.7818 46.0257V46.1057C33.7178 46.9697 33.6538 47.3057 33.5658 47.4017C33.5098 47.4497 33.4538 47.4657 33.3498 47.4657C33.2538 47.4657 32.9978 47.4577 32.7178 47.4337C32.7898 47.5537 32.8378 47.7537 32.8538 47.8897C33.1578 47.9057 33.4538 47.9137 33.6058 47.8977C33.7898 47.8897 33.9098 47.8417 34.0218 47.7297C34.1738 47.5697 34.2458 47.1777 34.3178 46.2497C34.3258 46.1777 34.3338 46.0257 34.3338 46.0257H33.7818ZM35.3578 46.3377H37.0218V47.3377H35.3578V46.3377ZM34.7978 45.8737V47.8097H37.6058V45.8737H34.7978ZM31.7258 48.2097V51.1857H32.3178V48.6257H37.1178V48.2097H31.7258ZM34.2938 48.3617V50.9297H34.8778V48.3617H34.2938ZM37.0778 50.7457V50.8257C36.9978 51.8097 36.8938 52.2017 36.7738 52.3137C36.7098 52.3777 36.6458 52.3857 36.5338 52.3857C36.4218 52.3857 36.1258 52.3777 35.8138 52.3457C35.8938 52.4817 35.9418 52.6817 35.9498 52.8257C36.3018 52.8417 36.6218 52.8497 36.7978 52.8337C36.9898 52.8177 37.1178 52.7777 37.2378 52.6577C37.4218 52.4737 37.5258 52.0337 37.6378 50.9857C37.6458 50.8977 37.6618 50.7457 37.6618 50.7457H37.0778ZM31.6058 51.3137C31.3658 51.6817 30.9898 52.2017 30.6378 52.5217L31.1418 52.8097C31.4698 52.4577 31.8218 51.9537 32.0858 51.5697L31.6058 51.3137ZM32.6138 51.5537C32.7338 51.9137 32.8298 52.3937 32.8458 52.6977L33.3898 52.5937C33.3578 52.2897 33.2538 51.8257 33.1178 51.4657L32.6138 51.5537ZM33.9338 51.5617C34.1338 51.8737 34.3338 52.3137 34.3978 52.5937L34.9018 52.4257C34.8138 52.1457 34.6058 51.7297 34.3898 51.4177L33.9338 51.5617ZM35.2218 51.4897C35.4458 51.7217 35.7018 52.0497 35.8138 52.2737L36.2538 52.0577C36.1338 51.8337 35.8778 51.5217 35.6378 51.2977L35.2218 51.4897ZM32.1818 45.4657C32.0778 46.5937 31.7978 47.4337 30.5978 47.8577C30.7178 47.9537 30.8618 48.1457 30.9258 48.2737C32.2698 47.7537 32.6138 46.7937 32.7418 45.4657H32.1818Z" fill="white"/>
<circle cx="20.7913" cy="20.5379" r="19.3855" stroke="white" stroke-width="1.5"/>
<path d="M18.1674 13.5823L10.174 17.0258L8.15943 14.8087C8.03297 14.6693 7.8429 14.6061 7.65785 14.641L5.92493 14.9716C5.52613 15.0476 5.34986 15.5198 5.60218 15.8385L8.86427 19.9603C9.00245 20.135 9.23353 20.2069 9.4463 20.142L22.1398 16.2678C25.0802 15.3704 26.1099 14.4154 26.4697 13.8369C26.6448 13.5558 26.6318 13.1976 26.4418 12.9268C25.7712 11.9685 24.7105 11.6769 23.9596 11.6331C22.9495 11.5738 22.1838 11.8519 21.5723 12.1155L20.9725 12.374L18.1674 13.5823ZM18.1674 13.5823V13.5823Z" stroke="white" stroke-width="0.75" stroke-linecap="round" stroke-linejoin="round"/>
<path d="M19.7187 17.0059L18.1808 21.0096C18.1212 21.1649 17.9932 21.2844 17.8337 21.3328L16.2591 21.8135C15.901 21.923 15.5422 21.6433 15.5613 21.2688L15.714 18.228L19.7187 17.0059Z" stroke="white" stroke-width="0.75" stroke-linecap="round" stroke-linejoin="round"/>
<path d="M17.5745 13.837L13.1199 12.5165C13.0003 12.4809 12.8721 12.488 12.7571 12.5362L11.9969 12.8547C11.6643 12.9942 11.5589 13.414 11.7858 13.6941L13.3691 15.6487L17.5745 13.837Z" stroke="white" stroke-width="0.75" stroke-linecap="round" stroke-linejoin="round"/>
<path d="M23.7859 13.8488L23.3691 13.3318L25.1444 11.9004C25.3579 11.9888 25.5695 12.1025 25.7711 12.2478L23.7859 13.8488Z" stroke="white" stroke-width="0.75" stroke-linecap="round" stroke-linejoin="round"/>
<line x1="30.2529" y1="14.1397" x2="14.8118" y2="29.5809" stroke="white" stroke-width="0.75" stroke-linecap="round"/>
<path d="M33.1353 27.0399C33.1178 27.0393 33.1 27.0413 33.082 27.0455C31.3744 27.4543 30.0006 28.7189 29.4519 30.3871C29.4071 30.5228 29.5088 30.6636 29.652 30.6636H31.0134C31.0757 30.6636 31.137 30.6519 31.1947 30.6301C31.7002 30.3047 32.1407 29.8881 32.4928 29.4032C32.9369 28.78 33.2311 28.0536 33.3396 27.2795C33.3576 27.1514 33.2572 27.0419 33.1353 27.0399ZM33.1353 27.0399V27.0399ZM23.937 25.3433C24.5069 23.2588 26.3969 21.8103 28.5577 21.802H28.5579H28.5581C28.5707 21.8031 28.5831 21.8024 28.5948 21.802H28.595H28.5952C30.756 21.8103 32.6461 23.2588 33.2159 25.3433M23.937 25.3433C23.9004 25.4769 24.0015 25.6091 24.1402 25.6091H28.5765H33.0128C33.1515 25.6091 33.2525 25.4769 33.2159 25.3433M23.937 25.3433C23.9552 25.348 23.9552 25.348 23.937 25.3433ZM33.2159 25.3433C33.1978 25.348 33.1978 25.348 33.2159 25.3433ZM34.6355 24.8538C33.8782 22.2434 31.5345 20.4117 28.8187 20.3074C28.7305 20.3073 28.6544 20.3068 28.579 20.3068C28.5772 20.3068 28.5753 20.3066 28.5735 20.3066C28.5721 20.3066 28.5706 20.3068 28.5692 20.3068C28.4944 20.3065 28.4199 20.3066 28.3343 20.3074C26.0817 20.3939 24.0851 21.6691 23.0374 23.5908C23.024 23.6151 23.0111 23.6399 22.9981 23.6644C22.9916 23.6766 22.9851 23.6887 22.9788 23.7008C22.6052 24.4171 22.3652 25.2141 22.2916 26.0586C22.2906 26.0706 22.2894 26.0826 22.2884 26.0948C22.2862 26.1213 22.2844 26.1477 22.2825 26.1744C22.2808 26.1995 22.2792 26.2245 22.2778 26.2498C22.2766 26.2699 22.2754 26.2903 22.2744 26.3107C22.2724 26.3525 22.2709 26.3944 22.2697 26.436C22.2695 26.4415 22.2692 26.447 22.2691 26.4528C22.2679 26.5017 22.2673 26.5505 22.2673 26.5992C22.2672 26.6038 22.2671 26.6085 22.2671 26.613C22.2671 26.6233 22.2674 26.6333 22.2675 26.6436C22.2676 26.6765 22.268 26.7097 22.2687 26.7428C22.2691 26.7629 22.2696 26.7831 22.2702 26.8032C22.2709 26.8279 22.2719 26.8519 22.2729 26.8766C22.335 28.3857 22.9272 29.7581 23.8686 30.8121C23.8706 30.8142 23.8725 30.8165 23.8745 30.8188C23.8986 30.8457 23.9229 30.8722 23.9475 30.8989C23.9534 30.9053 23.9593 30.9116 23.9652 30.918C23.9891 30.9432 24.0132 30.9688 24.0375 30.9941C24.042 30.9987 24.0466 31.0034 24.0511 31.0078C25.197 32.1869 26.7995 32.9197 28.5735 32.9197C29.8624 32.9197 31.0607 32.5328 32.0593 31.8691C32.0918 31.8494 32.124 31.8289 32.1554 31.8074C34.3936 30.2656 35.3929 27.4637 34.6355 24.8538ZM24.9741 29.7982C24.354 29.097 23.9457 28.2234 23.8133 27.2795C23.7953 27.1514 23.8958 27.0419 24.0177 27.0399C24.0351 27.0393 24.053 27.0413 24.071 27.0455C25.7786 27.4543 27.1524 28.7189 27.7011 30.3871C27.7459 30.5228 27.6442 30.6636 27.501 30.6636H26.1396C26.0719 30.6636 26.0053 30.6497 25.9434 30.6241C25.5846 30.3922 25.2587 30.114 24.9741 29.7982Z" stroke="white" stroke-width="0.5" stroke-linecap="round" stroke-linejoin="round"/>
</svg>
