<svg width="75" height="101" viewBox="0 0 75 101" fill="none" xmlns="http://www.w3.org/2000/svg">
<path d="M7.81063 87.847V88.869H20.0746V87.847H7.81063ZM12.1506 92.285V93.265H19.5286V92.285H12.1506ZM11.6046 97.241V98.235H20.0746V97.241H11.6046ZM15.3146 89.583V97.773H16.3646V89.583H15.3146ZM12.4166 85.677C11.6326 88.561 9.99463 91.669 7.47463 93.447C7.64263 93.685 7.90863 94.133 8.02063 94.413C10.8066 92.411 12.5146 89.149 13.4946 85.943L12.4166 85.677ZM9.64463 91.445V98.515H10.6946V91.445H9.64463ZM31.5126 85.677V95.435H32.5066V85.677H31.5126ZM27.1026 91.459L27.5086 92.383L35.0406 89.177L34.6486 88.281L27.1026 91.459ZM28.6146 86.993V96.345C28.6146 97.871 29.0906 98.249 30.7006 98.249C31.0506 98.249 33.7666 98.249 34.1446 98.249C35.6146 98.249 35.9506 97.633 36.1186 95.701C35.8246 95.645 35.4186 95.477 35.1666 95.309C35.0686 96.919 34.9286 97.297 34.1026 97.297C33.5426 97.297 31.1906 97.297 30.7286 97.297C29.7906 97.297 29.6226 97.129 29.6226 96.359V86.993H28.6146ZM34.4666 88.421C34.4666 91.207 34.4526 93.195 34.3686 93.559C34.2986 93.881 34.1586 93.937 33.9486 93.937C33.7946 93.937 33.3326 93.937 33.0106 93.923C33.1366 94.161 33.2206 94.553 33.2626 94.833C33.6406 94.833 34.2006 94.833 34.5786 94.735C34.9846 94.637 35.2506 94.371 35.3346 93.811C35.4326 93.265 35.4746 91.165 35.4746 88.533L35.5166 88.337L34.7746 88.057L34.5926 88.211L34.3406 88.421H34.4666ZM23.1966 89.051V90.045H27.6486V89.051H23.1966ZM25.0026 85.845V94.931H25.9966V85.845H25.0026ZM23.0706 95.295L23.4906 96.331C24.7366 95.799 26.3186 95.085 27.8166 94.371L27.5926 93.433C25.9266 94.147 24.2046 94.875 23.0706 95.295ZM44.7846 91.767V92.537H51.6726V91.767H44.7846ZM44.5326 97.507V98.305H51.7706V97.507H44.5326ZM46.8706 85.691V87.441H47.6686V85.691H46.8706ZM48.6626 85.691V87.441H49.4606V85.691H48.6626ZM46.3526 93.895H50.0206V95.127H46.3526V93.895ZM45.4846 93.209V95.813H50.9306V93.209H45.4846ZM46.0306 89.359H50.3426V90.325H46.0306V89.359ZM46.0306 87.707H50.3426V88.659H46.0306V87.707ZM45.2046 86.979V91.067H51.1966V86.979H45.2046ZM46.1426 96.093C46.4226 96.597 46.6466 97.283 46.7166 97.745L47.5286 97.451C47.4446 96.989 47.2066 96.331 46.8986 95.841L46.1426 96.093ZM49.3906 95.827C49.2506 96.289 48.9706 97.003 48.7466 97.479L49.4326 97.717C49.6706 97.283 49.9926 96.653 50.2866 96.079L49.3906 95.827ZM40.4586 93.531V94.287H43.5806V93.531H40.4586ZM40.4586 95.323V96.093H43.5806V95.323H40.4586ZM39.9686 91.767V98.571H40.8646V92.537H43.5386V91.767H39.9686ZM42.9786 91.767V97.563C42.9786 97.703 42.9226 97.745 42.7826 97.745C42.6566 97.759 42.2086 97.759 41.7186 97.745C41.8306 97.969 41.9566 98.319 41.9986 98.557C42.7406 98.557 43.2026 98.557 43.4966 98.403C43.8046 98.263 43.8886 98.025 43.8886 97.577V91.767H42.9786ZM39.9546 86.181V90.437H40.7666V86.979H43.0766V90.437H43.9026V86.181H39.9546ZM39.1566 90.073V92.089H39.9546V90.843H43.9026V92.089H44.7286V90.073H39.1566ZM41.4946 87.889V90.367H42.1666V88.561H43.6086V87.889H41.4946ZM47.0106 87.259V90.703H47.6686V87.259H47.0106ZM48.6626 87.259V90.703H49.3206V87.259H48.6626ZM61.6966 89.051V89.863H65.5606V89.051H61.6966ZM61.2206 91.473H62.5086V93.265H61.2206V91.473ZM60.4786 90.745V93.993H63.2926V90.745H60.4786ZM64.7486 91.473H66.1206V93.265H64.7486V91.473ZM64.0066 90.745V93.993H66.9186V90.745H64.0066ZM61.5286 94.371C61.3186 95.967 60.7446 97.213 59.6386 97.983C59.8486 98.123 60.1846 98.445 60.3106 98.613C61.5006 97.703 62.1726 96.303 62.4386 94.427L61.5286 94.371ZM61.3746 96.177C61.9486 96.709 62.6486 97.451 62.9846 97.927L63.5866 97.311C63.2506 96.849 62.5226 96.149 61.9626 95.645L61.3746 96.177ZM65.0286 94.357C64.8046 95.939 64.2026 97.171 63.0966 97.941C63.3206 98.081 63.6566 98.417 63.7826 98.571C64.9726 97.661 65.6866 96.275 65.9526 94.413L65.0286 94.357ZM64.8186 96.233C65.5466 96.947 66.4146 97.941 66.8206 98.557L67.5066 98.025C67.0866 97.423 66.2046 96.457 65.4906 95.771L64.8186 96.233ZM63.5446 86.671C64.3426 87.959 65.7426 89.345 67.0726 90.157C67.1986 89.891 67.4226 89.499 67.6186 89.247C66.2886 88.547 64.8746 87.161 63.9926 85.733H63.0266C62.3826 87.063 61.0246 88.547 59.5966 89.373C59.7786 89.597 60.0026 89.975 60.1146 90.227C61.5286 89.345 62.8446 87.917 63.5446 86.671ZM55.6766 88.393V89.219H59.5686V88.393H55.6766ZM55.6766 90.507V91.319H59.5966V90.507H55.6766ZM55.1446 92.635V93.475H59.4286V92.635H55.1446ZM57.2586 86.727V93.069H58.0986V86.727H57.2586ZM57.6786 94.245C58.0146 94.819 58.3506 95.575 58.4906 96.079L58.9946 95.869C58.8546 95.379 58.5046 94.623 58.1546 94.077L57.6786 94.245ZM56.8246 94.441C57.0906 95.155 57.3146 96.093 57.3706 96.709L57.9166 96.583C57.8606 95.981 57.6086 95.043 57.3286 94.329L56.8246 94.441ZM55.9706 94.581C56.0966 95.407 56.1666 96.443 56.1386 97.129L56.7126 97.059C56.7266 96.373 56.6566 95.337 56.5166 94.511L55.9706 94.581ZM55.0466 94.329C55.0046 95.505 54.8646 96.751 54.3886 97.451L54.9766 97.787C55.4946 97.017 55.6346 95.687 55.6906 94.441L55.0466 94.329ZM55.1446 86.251V93.097H56.0126V87.105H59.8346V86.251H55.1446ZM59.0926 92.635V92.789C58.9666 96.149 58.8406 97.353 58.6026 97.619C58.5046 97.759 58.4066 97.787 58.2386 97.787C58.0566 97.787 57.6506 97.787 57.1886 97.731C57.3006 97.955 57.3846 98.319 57.4126 98.557C57.8746 98.585 58.3506 98.585 58.6166 98.557C58.9386 98.529 59.1486 98.445 59.3446 98.179C59.6806 97.773 59.8066 96.541 59.9466 93.041C59.9606 92.901 59.9606 92.635 59.9606 92.635H59.0926Z" fill="#5BD0FA"/>
<circle cx="37.5619" cy="37.3717" r="36.3717" fill="#5BD0FA" stroke="#5BD0FA" stroke-width="1.5"/>
<path d="M53.2039 41.762L55.9688 45.3119C57.2376 46.9376 58.506 48.5634 59.774 50.1899C60.1749 50.7054 60.1383 51.0295 59.6282 51.4272C54.5183 55.4111 49.4077 59.3972 44.2951 63.3858C43.1678 64.2646 42.0416 65.1436 40.9163 66.0237C40.22 66.5682 39.9852 66.5486 39.4314 65.8395C35.4183 60.6967 31.4064 55.5527 27.3955 50.4063L11.5579 30.0925C11.0858 29.4866 11.1144 29.2123 11.7258 28.7368C17.9737 23.8609 24.223 18.9861 30.473 14.113C31.0192 13.6863 31.3318 13.7266 31.7683 14.284C33.4017 16.3716 35.0337 18.461 36.664 20.5519C36.7974 20.7232 36.9365 20.8896 37.0815 21.0721C40.7091 13.9455 49.4275 11.1086 56.5546 14.7364C63.6817 18.364 66.5185 27.0826 62.8908 34.2098C60.9423 38.0378 57.3949 40.8029 53.2071 41.7587L53.2039 41.762ZM33.6853 43.0504C33.668 42.8259 33.6555 42.6675 33.6414 42.5067C33.6279 42.3456 33.606 42.185 33.6026 42.0231C33.535 39.0983 34.6543 36.2698 36.7053 34.1839C36.8895 34.0412 36.9353 33.782 36.8112 33.5854C35.2782 30.222 35.1133 26.3947 36.3517 22.9125C36.4657 22.6418 36.4094 22.3295 36.2078 22.1158C35.0206 20.6147 33.8485 19.1002 32.6705 17.5923C32.4751 17.3423 32.2795 17.0928 32.0829 16.8414C31.4659 16.0541 30.328 15.9145 29.5393 16.5297L14.2531 28.4477C13.4628 29.0634 13.3219 30.204 13.9381 30.9936L22.8606 42.4343C23.1272 42.2698 23.3559 42.1104 23.603 41.9815C23.9067 41.7822 24.3142 41.867 24.5131 42.1705C24.5194 42.1801 24.5249 42.1895 24.5305 42.1988C24.7185 42.4924 24.6333 42.8823 24.34 43.0706C24.3317 43.0756 24.3231 43.0811 24.3143 43.0861C24.1271 43.2221 23.933 43.3502 23.7007 43.5102L33.945 56.6414C34.6526 55.0225 35.0697 53.2914 35.177 51.5281C35.2833 49.2552 34.9031 46.9858 34.0611 44.8716C34.0058 44.7464 33.9077 44.6451 33.7841 44.5855C33.0499 44.2408 32.3062 43.9257 31.5685 43.597C31.1214 43.3984 30.9364 43.0577 31.0754 42.6998C31.2271 42.3093 31.5982 42.1793 32.0697 42.3687C32.5888 42.5766 33.0968 42.8011 33.6853 43.0504ZM53.891 44.8087C53.7302 44.9229 53.6027 45.0201 53.4727 45.1121C52.9543 45.4753 52.4386 45.8451 51.9143 46.1951C51.679 46.4036 51.3151 46.3738 51.1181 46.1232H51.1179C50.9881 45.8919 50.9395 45.6243 50.98 45.3624C50.9972 45.2189 51.2191 45.0818 51.3707 44.9716C51.9293 44.5657 52.497 44.1761 53.0797 43.7663C52.6417 43.2043 52.2488 42.6717 51.8156 42.1702C51.6855 42.0663 51.5219 42.0143 51.3559 42.024C50.4008 42.0088 49.4365 42.0997 48.493 41.9964C44.1682 41.5916 40.2679 39.2253 37.9109 35.577C37.8169 35.4388 37.7179 35.3035 37.6063 35.1463C36.6396 36.1286 35.9003 37.3113 35.4403 38.6109C34.7085 40.7814 34.7616 43.1403 35.5894 45.2759C37.0504 49.2852 36.8317 53.7139 34.9828 57.5593C34.8586 57.8248 34.969 57.9675 35.1057 58.142C36.2665 59.6282 37.4261 61.1142 38.5845 62.5999C38.786 62.8585 38.9877 63.1171 39.1905 63.3762C39.8073 64.1649 40.9462 64.3054 41.7357 63.6899L57.017 51.7719C57.8065 51.1562 57.948 50.0169 57.3325 49.2269L53.891 44.8087ZM49.9906 40.7652C57.2407 40.765 63.1178 34.8869 63.1171 27.6367C63.1165 20.3864 57.2384 14.5095 49.9881 14.5103C42.7545 14.5109 36.8846 20.3632 36.8618 27.5965C36.8643 34.8536 42.7348 40.7418 49.9917 40.7665L49.9906 40.7652Z" fill="white"/>
<path d="M31.6421 33.2641C31.6421 33.7057 31.6548 34.1484 31.6421 34.5904C31.6215 35.18 31.3363 35.4581 30.771 35.3651C28.2752 35.0877 25.8766 34.2396 23.7607 32.8874C22.0992 31.8509 21.2945 29.8624 21.7678 27.9618C22.1101 26.1172 23.5646 24.6814 25.4131 24.3628C27.6568 23.9076 29.9002 25.1423 30.7159 27.2815C31.2899 28.8454 31.6033 30.4933 31.6432 32.1588C31.6684 32.5254 31.6432 32.8955 31.6432 33.2641H31.6421ZM30.3606 33.964C30.316 33.0174 30.3021 32.1252 30.2253 31.2304C30.1669 29.9929 29.8908 28.7749 29.4101 27.6335C28.8988 26.3783 27.6619 25.5727 26.3073 25.6124C24.907 25.6006 23.6526 26.4772 23.1825 27.7962C22.6172 29.3388 23.2325 31.0658 24.6469 31.9035C26.4019 32.9497 28.342 33.6491 30.3606 33.9631V33.964Z" fill="white"/>
<path d="M29.8017 42.0297C29.8417 42.3921 29.5805 42.7179 29.2184 42.7576C29.1581 42.7644 29.0976 42.7625 29.0375 42.7528L26.5496 42.4896C26.1128 42.4423 25.8751 42.2103 25.8729 41.8286C25.8527 41.4916 26.1098 41.2019 26.4466 41.1818C26.4822 41.1804 26.5177 41.1811 26.5531 41.1854C27.4724 41.246 28.3919 41.3556 29.2986 41.4782C29.5818 41.5082 29.7978 41.7447 29.8017 42.0297Z" fill="white"/>
<path d="M43.7599 48.5456C42.9206 48.3413 42.076 48.1577 41.2439 47.9252C40.8969 47.8557 40.672 47.517 40.742 47.1699C40.7492 47.1354 40.7589 47.1008 40.7717 47.0681C40.9109 46.7268 41.2943 46.5559 41.6417 46.6796C42.4314 46.8417 43.2216 46.9956 44.0127 47.1474C44.3813 47.1784 44.66 47.4958 44.6436 47.8657C44.6136 48.2702 44.3067 48.4838 43.7599 48.5456Z" fill="white"/>
<path d="M46.6979 48.3931C46.3562 48.3526 46.0761 48.1011 45.9993 47.7654C45.9125 47.4494 46.0995 47.1225 46.4159 47.0359L46.4212 47.0348C47.2872 46.7601 48.1577 46.4974 49.032 46.2522C49.3389 46.1468 49.6726 46.3103 49.7778 46.6177C49.7794 46.6221 49.7808 46.6267 49.7825 46.6315C49.9347 46.8982 49.8419 47.2387 49.5753 47.3904C49.5553 47.4014 49.5349 47.4119 49.5139 47.4207C48.5862 47.7757 47.6356 48.0734 46.6979 48.3931Z" fill="white"/>
<path d="M38.8731 46.9808C38.7524 46.9499 38.6337 46.9111 38.5177 46.8657C37.8008 46.528 37.0835 46.1899 36.3722 45.8395C35.9124 45.6097 35.7494 45.2494 35.9262 44.887C36.1033 44.5237 36.4811 44.4272 36.9502 44.6507C37.6949 44.9953 38.4362 45.3543 39.1731 45.7211C39.4776 45.8373 39.6392 46.1703 39.5416 46.4817C39.4676 46.7872 39.1868 46.9964 38.8731 46.9808Z" fill="white"/>
<path d="M49.9733 39.4038C43.4816 39.4011 38.2209 34.1364 38.2236 27.6445C38.2263 21.153 43.4908 15.8923 49.9825 15.895C56.4746 15.8978 61.7349 21.1622 61.7324 27.6542C61.7322 27.6689 61.7322 27.6842 61.7322 27.6987C61.6676 34.1576 56.4319 39.3689 49.9733 39.4038ZM42.3273 34.6918C42.6075 34.3905 42.8492 34.1118 43.1122 33.8555C43.3271 33.5547 43.7449 33.4854 44.0455 33.6998C44.3461 33.9149 44.4153 34.3326 44.2003 34.6334C44.1589 34.6915 44.1082 34.7427 44.0503 34.7854C43.7903 35.0446 43.5052 35.2778 43.2076 35.5465C44.9368 37.0289 47.1062 37.9 49.38 38.0248V37.1719C49.3796 36.9954 49.3884 36.8188 49.4077 36.6432C49.4196 36.3141 49.696 36.0569 50.0254 36.0687H50.0272C50.3491 36.0295 50.6416 36.2595 50.6804 36.5817C50.683 36.6021 50.6844 36.6228 50.6847 36.6432C50.7202 37.0906 50.6938 37.5433 50.6938 38.0225C53.0448 37.8562 55.2706 36.8989 57.0088 35.307C56.725 35.0461 56.4607 34.8146 56.2124 34.569C55.7767 34.1405 55.7183 33.7649 56.0205 33.4578C56.3225 33.1508 56.7102 33.1935 57.1638 33.6465C57.3995 33.8849 57.6238 34.1322 57.8938 34.4104C59.4037 32.6416 60.2795 30.4192 60.3831 28.0953C59.8959 28.0953 59.4568 28.1055 59.0177 28.0953C58.5326 28.0815 58.2385 27.8221 58.2374 27.4303C58.2365 27.0383 58.5282 26.7809 59.0131 26.7726C59.4511 26.7655 59.8878 26.7726 60.3601 26.7726C60.1794 24.579 59.3049 22.4995 57.8639 20.8355C57.4766 21.2675 57.1489 21.67 56.7803 22.0261C56.5126 22.2596 56.1067 22.2313 55.8738 21.9639C55.6974 21.761 55.6657 21.4705 55.7939 21.2341C55.8882 21.0841 56.0045 20.9484 56.1388 20.8324C56.439 20.5575 56.7515 20.2965 57.0801 20.0132C55.3268 18.3961 53.0759 17.4232 50.6974 17.2546C50.7277 17.7839 50.7195 18.3148 50.6733 18.8433C50.6011 19.0975 50.4071 19.2999 50.1561 19.3824C49.8925 19.3629 49.6478 19.2388 49.4757 19.0386C49.3689 18.9314 49.3943 18.6761 49.3882 18.488C49.3767 18.0811 49.3882 17.6752 49.3882 17.2455C47.119 17.3763 44.955 18.2482 43.2284 19.7267C43.58 20.0715 43.903 20.3713 44.2051 20.693C44.3201 20.8164 44.4786 20.9965 44.4603 21.1295C44.4331 21.3793 44.3269 21.6139 44.1572 21.7987C43.9181 21.9939 43.566 21.9579 43.3711 21.7194C43.3676 21.7147 43.3643 21.7103 43.3606 21.7056C43.0065 21.3606 42.6768 20.9907 42.318 20.6099C40.7632 22.3107 39.8127 24.476 39.6128 26.7719H40.8298C41.3448 26.7771 41.6517 27.0302 41.6482 27.4321C41.6449 27.8342 41.3367 28.0881 40.8209 28.0953H39.5945C39.704 30.5461 40.6689 32.8817 42.3217 34.6951L42.3273 34.6918Z" fill="white"/>
<path d="M54.9128 23.6339C54.8637 23.7758 54.8082 23.9148 54.745 24.0508C53.8644 25.7668 52.9889 27.4862 52.089 29.1917C51.959 29.4329 51.7632 29.632 51.5245 29.7661C49.8067 30.6719 48.0772 31.5479 46.3533 32.4406C46.0086 32.6199 45.6845 32.7011 45.3859 32.3958C45.0866 32.0897 45.1877 31.7841 45.3559 31.4606C46.2542 29.7218 47.1426 27.9765 48.0484 26.2406C48.1456 26.0449 48.2973 25.881 48.4848 25.7689C50.2709 24.8338 52.0628 23.9098 53.8614 22.9975C54.1769 22.7921 54.6003 22.8819 54.8053 23.1978C54.8893 23.3274 54.9271 23.4809 54.9128 23.6339ZM52.6293 25.2548L52.5533 25.1739C51.749 25.588 50.9555 26.0441 50.125 26.4013C49.4842 26.6609 48.9742 27.1674 48.7101 27.8065C48.3381 28.6455 47.8866 29.4502 47.4634 30.2788C47.5369 30.2959 47.5689 30.3158 47.5873 30.3075C48.6479 29.7655 49.7072 29.2215 50.7649 28.6756C50.8542 28.6275 50.9272 28.5542 50.9754 28.4652C51.5269 27.3976 52.075 26.3255 52.6243 25.2548H52.6293Z" fill="white"/>
</svg>
