<svg width="75" height="100" viewBox="0 0 75 100" fill="none" xmlns="http://www.w3.org/2000/svg">
<path d="M11.272 89.1336L11.426 90.1276L20.106 89.0356L19.952 88.0416L11.272 89.1336ZM16.746 85.1156C17.572 85.8156 18.566 86.8096 19.014 87.4396L19.826 86.8796C19.35 86.2356 18.356 85.2836 17.516 84.6116L16.746 85.1156ZM11.118 84.4716C10.194 86.6836 8.654 88.8396 7.03 90.1976C7.226 90.4356 7.534 90.9676 7.646 91.2196C9.396 89.6516 11.062 87.2436 12.112 84.7936L11.118 84.4716ZM9.536 88.1956V97.1836H10.6V87.1596V87.1456L9.536 88.1956ZM14.408 84.5276C14.716 91.6816 15.64 96.9736 18.79 97.1976C19.518 97.2256 20.092 96.5116 20.386 94.0756C20.19 93.9916 19.728 93.7256 19.518 93.5156C19.378 95.1536 19.14 95.9796 18.748 95.9516C16.634 95.7556 15.668 90.8136 15.472 84.5276H14.408ZM28.128 85.5356V86.3336H35.52V85.5356H28.128ZM27.806 88.8816V89.6796H35.814V88.8816H27.806ZM27.764 94.0756V94.8876H35.87V94.0756H27.764ZM28.492 87.1736V87.9576H35.282V87.1736H28.492ZM29.836 84.3316V89.2036H30.774V84.3316H29.836ZM32.86 84.3316V89.2036H33.798V84.3316H32.86ZM31.32 89.2316V94.3276H32.258V89.2316H31.32ZM34.064 90.4916V96.1056C34.064 96.2876 34.008 96.3296 33.812 96.3436C33.63 96.3576 32.944 96.3576 32.216 96.3296C32.342 96.5816 32.468 96.9456 32.51 97.1836C33.518 97.1836 34.162 97.1976 34.554 97.0436C34.918 96.8896 35.03 96.6236 35.03 96.1056V90.4916H34.064ZM28.66 90.4916V97.2116H29.612V91.2896H34.484V90.4916H28.66ZM29.15 92.2976V93.0256H34.456V92.2976H29.15ZM24.278 93.9636C24.012 94.9856 23.494 95.9796 22.864 96.6516C23.088 96.7916 23.48 97.0716 23.662 97.2116C24.306 96.4696 24.894 95.3356 25.23 94.1876L24.278 93.9636ZM26.042 94.3136C26.476 94.9996 26.952 95.9376 27.162 96.5256L28.002 96.1196C27.792 95.5456 27.288 94.6356 26.826 93.9496L26.042 94.3136ZM24.502 88.3496H26.602V90.1556H24.502V88.3496ZM24.502 90.9676H26.602V92.8016H24.502V90.9676ZM24.502 85.7316H26.602V87.5236H24.502V85.7316ZM23.578 84.8496V93.6696H27.54V84.8496H23.578ZM40.042 84.8356V85.8156H43.29V84.8356H40.042ZM40.042 88.1116V89.0916H43.318V88.1116H40.042ZM45.502 89.6376V90.6176H50.584V89.6376H45.502ZM40.014 91.4716V92.4656H43.29V91.4716H40.014ZM39.608 84.8356V89.8756C39.608 91.9336 39.538 94.7476 38.572 96.7216C38.824 96.8196 39.244 97.0576 39.44 97.2256C40.434 95.1536 40.574 92.0596 40.574 89.8756V84.8356H39.608ZM42.702 84.8356V95.9376C42.702 96.1336 42.632 96.1896 42.436 96.2036C42.268 96.2176 41.68 96.2176 41.022 96.2036C41.162 96.4696 41.288 96.9456 41.33 97.1976C42.282 97.2116 42.842 97.1836 43.206 97.0156C43.556 96.8336 43.682 96.5116 43.682 95.9516V84.8356H42.702ZM49.856 84.8776V87.5796C49.856 87.7476 49.8 87.8036 49.576 87.8036C49.352 87.8176 48.61 87.8176 47.77 87.8036C47.896 88.0556 48.05 88.4056 48.106 88.6996C49.17 88.6996 49.87 88.6996 50.304 88.5456C50.752 88.3916 50.864 88.1116 50.864 87.5936V84.8776H49.856ZM50.304 89.6376V89.8336C49.702 92.8996 47.966 95.2936 45.978 96.3436C46.188 96.5256 46.468 96.8896 46.594 97.1276C48.778 95.8256 50.57 93.4036 51.27 89.8196L50.654 89.6096L50.486 89.6376H50.304ZM47.07 90.2396L46.23 90.4636C47.112 93.4456 48.736 95.9796 51.004 97.2116C51.158 96.9736 51.452 96.6096 51.69 96.4136C49.492 95.3496 47.868 92.9556 47.07 90.2396ZM44.914 84.8776V97.1976H45.908V85.8576H50.136V84.8776H44.914ZM54.588 85.0176V85.9276H59.362V85.0176H54.588ZM59.992 92.1716V93.0816H66.068V92.1716H59.992ZM54.434 89.2456V90.1836H59.698V89.2456H54.434ZM56.884 89.6236V95.9796C56.884 96.1336 56.828 96.1756 56.674 96.1896C56.506 96.1896 55.946 96.1896 55.344 96.1756C55.484 96.4556 55.624 96.8896 55.652 97.1556C56.52 97.1556 57.066 97.1416 57.416 96.9876C57.794 96.8056 57.892 96.5256 57.892 95.9796V89.6236H56.884ZM65.704 92.1716V92.3396C65.494 94.7896 65.242 95.7696 64.948 96.0496C64.822 96.1756 64.696 96.1896 64.472 96.1896C64.248 96.1896 63.688 96.1756 63.086 96.1196C63.24 96.3996 63.338 96.8196 63.366 97.0996C63.996 97.1416 64.612 97.1416 64.934 97.1136C65.312 97.0856 65.564 97.0016 65.816 96.7496C66.222 96.3296 66.474 95.2656 66.74 92.6336C66.768 92.4796 66.782 92.1716 66.782 92.1716H65.704ZM62.61 90.7856C62.372 93.2076 61.826 95.3216 58.914 96.3996C59.138 96.5816 59.418 96.9596 59.544 97.2116C62.708 95.9796 63.394 93.6136 63.66 90.7856H62.61ZM55.078 87.3556C56.268 87.8876 57.696 88.7696 58.396 89.4136L59.096 88.6436C58.368 87.9996 56.912 87.1736 55.736 86.6836L55.078 87.3556ZM59.418 89.2456V89.4276C59.194 90.4356 58.844 91.6816 58.48 92.4516L59.222 92.8156C59.656 91.9476 60.076 90.6036 60.37 89.4276L59.726 89.2036L59.572 89.2456H59.418ZM65.032 86.2216C64.276 88.3916 62.316 89.6376 59.768 90.2816C59.978 90.5056 60.3 90.9396 60.426 91.1636C63.072 90.3376 65.172 88.9376 66.11 86.4036L65.032 86.2216ZM62.036 84.3176C61.476 85.6616 60.454 86.9356 59.348 87.7616C59.614 87.9016 60.034 88.1956 60.216 88.3776C61.294 87.4816 62.372 86.0816 63.03 84.5836L62.036 84.3176ZM61.784 86.5156L60.916 86.8096C62.036 88.9656 64.136 90.5336 66.698 91.2196C66.838 90.9396 67.146 90.5336 67.37 90.3236C64.878 89.7776 62.792 88.3776 61.784 86.5156ZM56.758 89.5536C56.296 91.1636 55.302 92.9976 54.294 93.9496C54.476 94.2016 54.728 94.6356 54.84 94.9296C55.932 93.8376 56.94 91.6676 57.472 89.8196L56.758 89.5536ZM61.728 85.8016L61.294 86.6976H67.076V85.8016H61.728ZM59.11 85.0176V85.2136C58.648 85.9696 57.668 86.9916 56.772 87.5796C56.982 87.7056 57.304 87.9296 57.486 88.0976C58.452 87.4536 59.544 86.3896 60.188 85.4096L59.502 84.9756L59.334 85.0176H59.11Z" fill="#909090"/>
<circle cx="37.3695" cy="37.4862" r="36.3717" stroke="#909090" stroke-width="1.5"/>
<path d="M30.3562 32.9442C30.3562 32.9442 31.8302 16.6243 37.2708 16.6243" stroke="#909090" stroke-width="2" stroke-linecap="round" stroke-linejoin="round"/>
<path d="M44.1853 32.9442C44.1853 32.9442 42.7114 16.6243 37.2708 16.6243" stroke="#909090" stroke-width="2" stroke-linecap="round" stroke-linejoin="round"/>
<path d="M23.3398 25.5718H51.2527V56.2806H23.3398V25.8766" stroke="#909090" stroke-width="2" stroke-linecap="round" stroke-linejoin="round"/>
</svg>
