<svg width="17" height="24" viewBox="0 0 17 24" fill="none" xmlns="http://www.w3.org/2000/svg">
<path d="M4.62485 15.8413H11.9835V17.0434C11.9835 17.5957 11.5358 18.0434 10.9835 18.0434H5.62485C5.07256 18.0434 4.62485 17.5957 4.62485 17.0434V15.8413Z" fill="white" stroke="#B5B5B6"/>
<circle cx="8.30416" cy="8.9855" r="7.51596" fill="white" stroke="#B5B5B6"/>
<rect x="5.16055" y="14.8998" width="6.28723" height="2.20213" fill="white"/>
<line x1="5.27338" y1="19.4584" x2="11.335" y2="19.4584" stroke="#B5B5B6" stroke-linecap="round"/>
<line x1="5.27338" y1="21.3732" x2="11.335" y2="21.3732" stroke="#B5B5B6" stroke-linecap="round"/>
<path d="M7.30417 22.1285H9.30417V22.937C9.30417 23.2132 9.08031 23.437 8.80417 23.437H7.80417C7.52803 23.437 7.30417 23.2132 7.30417 22.937V22.1285Z" fill="#B5B5B6"/>
<path d="M4.29367 8.49451L5.62967 11.1686L6.96664 8.49451L8.30365 11.1686L9.64066 8.49451L10.1765 9.5661L10.9777 11.1686L12.3147 8.49451" stroke="#B5B5B6" stroke-linecap="round" stroke-linejoin="round"/>
</svg>
